<svg id="Layer_1" data-name="Layer 1" xmlns="http://www.w3.org/2000/svg" viewBox="0 0 798.2 502.9"><defs><style>.cls-1{fill:#fff;}.cls-2{fill:#eb5a3c;}.cls-3{fill:#6e1946;}.cls-4{fill:#91b9b4;}.cls-5{fill:#b41932;}.cls-6{fill:#fac39b;}.cls-7{fill:#ff9619;}.cls-8{fill:#0f2837;}</style></defs><polygon class="cls-1" points="37.1 299.2 29.9 291.9 22.8 299.2 29.9 306.4 37.1 299.2"/><polygon class="cls-1" points="20.2 299.2 13.1 291.9 6 299.2 13.1 306.4 20.2 299.2"/><polygon class="cls-1" points="157 298.6 149.9 291.3 142.8 298.6 149.9 305.9 157 298.6"/><path class="cls-1" d="M265.3,573.4c-3.1-6.1-7.6-9.2-13.6-9.2a14.68,14.68,0,0,0-6.9,1.7,16.47,16.47,0,0,0-5.6,4.6,22.85,22.85,0,0,0-3.7,6.9,26.58,26.58,0,0,0-1.4,8.5c0,5.3,1.4,9.4,4.3,12.4s6.8,4.4,11.9,4.4a19.68,19.68,0,0,0,6.5-1,20,20,0,0,0,5.4-2.9v8.1c0,1.5-2.5,2.7-7.6,3.5S163,611.6,153,611.6h-2.7c-3.8,0-6.5-.7-8.2-2.1s-2.5-3.8-2.4-7.1l.5-39-9.1,1.6v7c-9.3,1.9-16.5,5-21.7,9.1s-7.8,9.2-7.8,15.1a14,14,0,0,0,1.5,6.6,13.72,13.72,0,0,0,4,4.9,19.31,19.31,0,0,0,5.9,3,24.77,24.77,0,0,0,7.3,1,21.91,21.91,0,0,0,11.4-2.8c1.3,8.7,7.5,13,18.5,13h2.7c4.1,0,86.6-.1,89.7-.2s5.8-.3,8.2-.6,4.4-.7,6.2-1.1a24.79,24.79,0,0,0,4.8-1.7,12.33,12.33,0,0,0,6.3-6c1.2-2.6,1.8-6.5,1.8-11.6,0-12.1-1.5-21.2-4.6-27.3m-8.2,19.7a22.55,22.55,0,0,1-5.8.8c-3.2,0-5.7-.7-7.4-2.2a7.93,7.93,0,0,1-2.6-6.4,12,12,0,0,1,2.9-8.1,9.05,9.05,0,0,1,7.1-3.3,7.85,7.85,0,0,1,7.1,4c1.7,2.7,2.7,7,3.3,13a15.16,15.16,0,0,1-4.6,2.2m-135.4,8.4a24.18,24.18,0,0,1-4.7-.4,15.65,15.65,0,0,1-4-1.3,6.17,6.17,0,0,1-2.7-2.3,5.58,5.58,0,0,1-1-3.5,7.3,7.3,0,0,1,1.8-4.7,17.16,17.16,0,0,1,4.8-3.8,37.81,37.81,0,0,1,7-2.8,51.76,51.76,0,0,1,8.2-1.6l.2,18.5a21.93,21.93,0,0,1-9.6,1.9" transform="translate(-101.6 -249.1)"/><polygon class="cls-1" points="304.2 310.8 297.1 303.6 289.9 310.8 297.1 318.1 304.2 310.8"/><polygon class="cls-1" points="321 310.8 313.9 303.6 306.7 310.8 313.9 318.1 321 310.8"/><polygon class="cls-1" points="438.6 309 431.4 301.7 424.3 309 431.4 316.2 438.6 309"/><polygon class="cls-1" points="439.8 331.1 447 323.8 439.8 316.6 432.7 323.8 439.8 331.1"/><polygon class="cls-1" points="430.2 323.8 423 316.6 415.9 323.8 423 331.1 430.2 323.8"/><path class="cls-1" d="M640.6,549.1l.3,56.4a3.78,3.78,0,0,1-1.2,2.8,7.27,7.27,0,0,1-3.1,1.8,18.08,18.08,0,0,1-4.3,1c-1.6.2-82.1.3-83.8.3-9.1,0-13.7-2.4-13.7-7.1,0-.6.2-2.3.5-5s.7-5.6,1-8.9l-7.8-.9c-.2,1-.3,2.2-.5,3.5s-.3,2.6-.6,3.9-.5,2.6-.7,3.9-.4,2.3-.6,3.2a8.11,8.11,0,0,1-4.5,5.8c-2.4,1.2-85,1.7-90.1,1.7h0c-2.3,0-4.5,0-6.6-.1l-5.8-.3a18.52,18.52,0,0,0,6-14.1,23.61,23.61,0,0,0-1.4-8,22,22,0,0,0-3.9-6.5,19.37,19.37,0,0,0-5.8-4.4,16.11,16.11,0,0,0-14,0,19,19,0,0,0-5.8,4.4,18.5,18.5,0,0,0-3.9,6.5,21.4,21.4,0,0,0-1.4,8,18.37,18.37,0,0,0,6,14.1,55.43,55.43,0,0,1-5.9.3c-2.1.1-83.2.1-85.4.1q-5.7,0-8.1-2.1c-1.7-1.4-2.5-3.8-2.5-7.1l.5-54.7-9.1,1.6.5,56.5c.2,10.7,6.4,16.1,18.8,16.1,4.3,0,87.5-.3,91.7-1a69,69,0,0,0,11.7-3,71.57,71.57,0,0,0,11.7,3,76.79,76.79,0,0,0,12.7,1c4.8,0,88-.7,91.5-2a14,14,0,0,0,7.5-5.7c3,5.1,9,7.7,18,7.7h0c2.9,0,84.4-.3,87-.9a19.42,19.42,0,0,0,6.9-2.9,14.71,14.71,0,0,0,4.9-5.3,15.67,15.67,0,0,0,1.9-8.1l.5-57.1ZM407.1,608.6c-7.1-2.3-10.6-6.1-10.6-11.4a12.17,12.17,0,0,1,.8-4.3,11.52,11.52,0,0,1,2.2-3.5,9.76,9.76,0,0,1,3.4-2.3,11.62,11.62,0,0,1,4.2-.8,11.09,11.09,0,0,1,4.1.8,9.76,9.76,0,0,1,3.4,2.3,10.84,10.84,0,0,1,3.1,7.8c0,5.3-3.6,9.1-10.6,11.4" transform="translate(-101.6 -249.1)"/><polygon class="cls-1" points="563.2 372.6 562.6 300 571.7 298.4 571.1 372.6 563.2 372.6"/><path class="cls-1" d="M746.5,604.5c0,5.5-1.8,9.9-5.3,13.2s-8.4,4.9-14.5,4.9c-6.5,0-11.5-1.6-14.9-4.8s-5.1-7.8-5.1-13.8a33.16,33.16,0,0,1,1.6-10.6,32.78,32.78,0,0,1,4.3-8.8,22.37,22.37,0,0,1,6.3-6,14.3,14.3,0,0,1,7.7-2.2,14.64,14.64,0,0,1,7.8,2.2,22.37,22.37,0,0,1,6.3,6,29.32,29.32,0,0,1,4.2,8.9,35.69,35.69,0,0,1,1.6,11m-28.3-37.3-7.1-7.3,7.1-7.3,7.1,7.3Zm20.5,38.3a28.31,28.31,0,0,0-.9-7.4,19.8,19.8,0,0,0-2.5-5.9,14.14,14.14,0,0,0-3.8-3.9,9.23,9.23,0,0,0-4.8-1.4,10,10,0,0,0-4.7,1.2,12.28,12.28,0,0,0-3.9,3.3,18.41,18.41,0,0,0-2.6,4.8,18.71,18.71,0,0,0-1,5.9c0,3.3,1,5.8,3.1,7.5s5.1,2.6,9,2.6a23.15,23.15,0,0,0,4.6-.5,10.8,10.8,0,0,0,3.8-1.5,9.47,9.47,0,0,0,2.6-2.2,3.21,3.21,0,0,0,1.1-2.5M735,567.2l-7.1-7.3,7.1-7.3,7.1,7.3Z" transform="translate(-101.6 -249.1)"/><path class="cls-1" d="M743.3,635.7a71.63,71.63,0,0,0,11.5-5.3,61.55,61.55,0,0,0,9.2-6.3,29.9,29.9,0,0,0,6-6.6,11.18,11.18,0,0,0,2.2-6.3,20,20,0,0,0-.8-4.7,60.25,60.25,0,0,0-2.2-6.3c-1-2.3-2.1-4.6-3.4-7.1s-2.7-4.8-4.2-7.1l8.3-4.6a53,53,0,0,1,7.6,14.3,45.22,45.22,0,0,1,2.8,14.6c0,7.2-2.8,13.8-8.3,19.9s-13.3,10.9-23.4,14.6Z" transform="translate(-101.6 -249.1)"/><polygon class="cls-1" points="694.6 372.6 694 300 703.1 298.4 702.5 372.6 694.6 372.6"/><path class="cls-1" d="M810.4,635.7a75.89,75.89,0,0,0,11.5-5.3,61.55,61.55,0,0,0,9.2-6.3,29.9,29.9,0,0,0,6-6.6,11.18,11.18,0,0,0,2.2-6.3,20,20,0,0,0-.8-4.7,60.25,60.25,0,0,0-2.2-6.3c-1-2.3-2.1-4.6-3.4-7.1s-2.7-4.8-4.2-7.1l8.3-4.6a53,53,0,0,1,7.6,14.3,45.22,45.22,0,0,1,2.8,14.6c0,7.2-2.8,13.8-8.3,19.9s-13.3,10.9-23.4,14.6Zm21.1-63.6-7.1-7.3,7.1-7.3,7.1,7.3Z" transform="translate(-101.6 -249.1)"/><path class="cls-1" d="M862.5,635.3c16.6-2.3,26.1-8.3,28.7-18.1a17.09,17.09,0,0,1-5.4,2.7,22.69,22.69,0,0,1-6.5.9,15.46,15.46,0,0,1-12.2-5.3c-3.1-3.5-4.6-8.2-4.6-13.9a28.14,28.14,0,0,1,1.4-8.9,23,23,0,0,1,3.8-7.1,16.51,16.51,0,0,1,5.8-4.7,15.91,15.91,0,0,1,7.2-1.7c6,0,10.7,2.7,14,8.1s5,13,5,22.9a33.53,33.53,0,0,1-2.4,12.8,32.58,32.58,0,0,1-6.7,10.4,35.68,35.68,0,0,1-10.4,7.4,44.88,44.88,0,0,1-13.6,4Zm18.3-23.8a22.84,22.84,0,0,0,6.3-.9,15.33,15.33,0,0,0,4.8-2.3c-.3-6.1-1.4-10.8-3.4-14.1s-4.7-5-8.1-5a9.16,9.16,0,0,0-7.3,3.3c-1.9,2.2-2.8,5.1-2.8,8.7,0,3.2.9,5.7,2.8,7.5s4.4,2.8,7.7,2.8" transform="translate(-101.6 -249.1)"/><polygon class="cls-1" points="3.1 413.6 12.5 413.6 33.1 448.8 53.7 413.6 62.8 413.6 66 481.3 56.4 481.3 54.2 429.3 35.1 461.3 30.2 461.3 11.4 429.7 9.1 481.3 0 481.3 3.1 413.6"/><path class="cls-1" d="M184.2,662.4l7.2,7.2-7.2,7.3-7.3-7.3Zm-4.5,20.8h9.1v47.2h-9.1Z" transform="translate(-101.6 -249.1)"/><path class="cls-1" d="M201.8,730.4V686.2c0-.6,0-1.6-.1-3h8.7l.3,7.1c.6-.8,1.4-1.7,2.2-2.7a16.93,16.93,0,0,1,3.2-2.7,18.57,18.57,0,0,1,4.5-2,20.84,20.84,0,0,1,5.8-.8c6.2,0,10.7,1.8,13.7,5.4s4.5,8.5,4.5,14.6v28.3h-9.1V702.8c0-4.4-.9-7.6-2.8-9.7s-4.6-3.1-8-3.1a12.42,12.42,0,0,0-6.6,1.6,12.06,12.06,0,0,0-4.2,4.2,18.17,18.17,0,0,0-2.3,5.9,30.78,30.78,0,0,0-.7,6.8v21.9Z" transform="translate(-101.6 -249.1)"/><path class="cls-1" d="M260.4,662.4l7.2,7.2-7.2,7.3-7.3-7.3Zm-4.6,20.8h9.1v47.2h-9.1V683.2Z" transform="translate(-101.6 -249.1)"/><path class="cls-1" d="M280.2,718.5a20.42,20.42,0,0,0,6.1,4.1,21,21,0,0,0,8.2,1.5,17.15,17.15,0,0,0,7.6-1.5,4.84,4.84,0,0,0,3-4.6,5.07,5.07,0,0,0-.7-2.8,6.37,6.37,0,0,0-2.2-2.1,17.26,17.26,0,0,0-4.2-1.7c-1.7-.5-3.9-1.1-6.4-1.7a36.81,36.81,0,0,1-5.4-1.6,18.65,18.65,0,0,1-4.8-2.7,13.87,13.87,0,0,1-3.5-4.1,11.43,11.43,0,0,1-1.3-5.7,10.77,10.77,0,0,1,1.6-6,13.51,13.51,0,0,1,4.2-4.4,19.84,19.84,0,0,1,5.9-2.7,25.91,25.91,0,0,1,6.8-.9,29,29,0,0,1,10.3,1.6,24.83,24.83,0,0,1,7.6,4.4l-5,6.3a18.41,18.41,0,0,0-5.3-3.3,19,19,0,0,0-7.5-1.3,15.24,15.24,0,0,0-7,1.4,4.77,4.77,0,0,0-2.6,4.7c0,2,1.2,3.5,3.5,4.5a57.31,57.31,0,0,0,9.2,2.8,50.23,50.23,0,0,1,6.2,1.9,20.62,20.62,0,0,1,5.1,2.7,12.55,12.55,0,0,1,3.5,4.1,13.18,13.18,0,0,1,1.3,5.9,11.46,11.46,0,0,1-1.6,6.2,13.5,13.5,0,0,1-4.4,4.5,20,20,0,0,1-6.3,2.7,30.6,30.6,0,0,1-7.4.9q-13.35,0-20.1-7.2Z" transform="translate(-101.6 -249.1)"/><path class="cls-1" d="M329.2,690.8h-8.5v-7.6h8.5V667.8h9.1v15.4h13.8v7.6H338.3v23.3q0,5.7,1.8,7.8a6.28,6.28,0,0,0,5,2.1,11.16,11.16,0,0,0,4.4-.8,16.87,16.87,0,0,0,3.5-2.4l4.2,5.6a18.72,18.72,0,0,1-6.1,4.1,20.4,20.4,0,0,1-7.4,1.3c-5,0-8.7-1.4-11-4.1s-3.5-6.9-3.5-12.7Z" transform="translate(-101.6 -249.1)"/><path class="cls-1" d="M364.9,730.4V686.2c0-.6,0-1.6-.1-2.9h8.7l.3,7.6a34,34,0,0,1,2.1-2.7,16.93,16.93,0,0,1,3.2-2.7,22.49,22.49,0,0,1,4.4-2.1,17,17,0,0,1,5.7-.9,23,23,0,0,1,2.8.2,10.55,10.55,0,0,1,2.4.6l-2,8.5a12.59,12.59,0,0,0-4.7-.7,13.35,13.35,0,0,0-5.4,1.1,13.55,13.55,0,0,0-4.3,3.1,15.61,15.61,0,0,0-2.9,4.6,15.1,15.1,0,0,0-1.1,5.6v24.9Z" transform="translate(-101.6 -249.1)"/><path class="cls-1" d="M403.7,742a18.82,18.82,0,0,0,2.3,1.6,6.71,6.71,0,0,0,3.3.7,5.07,5.07,0,0,0,2.8-.7,6.37,6.37,0,0,0,2.1-2.2,22.84,22.84,0,0,0,1.8-3.5c.6-1.4,1.2-3,2-4.8l1.2-3-21.1-46.8h10.5l15.2,35.6,13.4-35.6h9.9l-18.9,46q-1.35,3.3-2.7,7.2a45.32,45.32,0,0,1-3.4,7.4,20.19,20.19,0,0,1-5,5.8,11.29,11.29,0,0,1-7.4,2.3,15.06,15.06,0,0,1-6-1,14.54,14.54,0,0,1-4.3-2.6Z" transform="translate(-101.6 -249.1)"/><path class="cls-1" d="M492.1,731.8a26,26,0,0,1-10.1-2,24.14,24.14,0,0,1-7.9-5.4,26.92,26.92,0,0,1-5.2-8,25.71,25.71,0,0,1,0-19.4,25.1,25.1,0,0,1,5.2-8,23.14,23.14,0,0,1,7.9-5.4,26.25,26.25,0,0,1,20.1,0A24.14,24.14,0,0,1,510,689a25.1,25.1,0,0,1,5.2,8,25.71,25.71,0,0,1,0,19.4,26.92,26.92,0,0,1-5.2,8,24.14,24.14,0,0,1-7.9,5.4,23.53,23.53,0,0,1-10,2m0-7.9a14.55,14.55,0,0,0,6.6-1.5,16.07,16.07,0,0,0,5-3.9,15.69,15.69,0,0,0,3.1-5.5,18.59,18.59,0,0,0,0-12.6,17.44,17.44,0,0,0-3.1-5.5,16.07,16.07,0,0,0-5-3.9,14,14,0,0,0-6.6-1.5,14.55,14.55,0,0,0-6.6,1.5,16.07,16.07,0,0,0-5,3.9,15.69,15.69,0,0,0-3.1,5.5,20,20,0,0,0-1.1,6.4,19,19,0,0,0,1.1,6.3,18.61,18.61,0,0,0,3.1,5.5,14.56,14.56,0,0,0,11.6,5.3" transform="translate(-101.6 -249.1)"/><path class="cls-1" d="M531,690.8h-8.5v-7.6H531v-3.9a23.26,23.26,0,0,1,1.4-8.3,16.36,16.36,0,0,1,3.6-5.7,14.37,14.37,0,0,1,5.2-3.3,18.39,18.39,0,0,1,6.2-1.1,23.4,23.4,0,0,1,7.4,1.2,17.5,17.5,0,0,1,6.6,4l-4.6,5.9a12.24,12.24,0,0,0-8-3.1,8.43,8.43,0,0,0-6.3,2.5q-2.4,2.55-2.4,8.7v3h13.5v7.6H540.1v39.6H531Z" transform="translate(-101.6 -249.1)"/><path class="cls-1" d="M641.6,718.5a22.63,22.63,0,0,1-3.5,4.2,33,33,0,0,1-5.7,4.4,32.33,32.33,0,0,1-17.3,4.9,35.58,35.58,0,0,1-13.7-2.6,32.08,32.08,0,0,1-10.7-7.4,33.76,33.76,0,0,1-7-11.2,40.45,40.45,0,0,1,0-28,36.88,36.88,0,0,1,7-11.4,32.44,32.44,0,0,1,24.6-10.5,32.54,32.54,0,0,1,9.7,1.3,36.89,36.89,0,0,1,7.5,3.3,30.88,30.88,0,0,1,5.5,4.3,28.26,28.26,0,0,1,3.7,4.5l-6.9,5.9c-.8-1.1-1.8-2.3-2.9-3.6a18.93,18.93,0,0,0-4-3.4,22.31,22.31,0,0,0-5.4-2.5,21.52,21.52,0,0,0-7-1,22.94,22.94,0,0,0-10,2.1,22.29,22.29,0,0,0-7.5,5.8,25.14,25.14,0,0,0-4.7,8.5,32.35,32.35,0,0,0-1.6,10.4,31.34,31.34,0,0,0,1.7,10.3,26.47,26.47,0,0,0,4.7,8.4,21.66,21.66,0,0,0,7.4,5.6,23.83,23.83,0,0,0,9.8,2,23.44,23.44,0,0,0,7.9-1.2,22.51,22.51,0,0,0,5.6-2.8,25.73,25.73,0,0,0,3.8-3.3c1-1.1,1.8-2,2.5-2.8Z" transform="translate(-101.6 -249.1)"/><path class="cls-1" d="M651.1,683.2h9.1v27.7c0,4.5.9,7.7,2.7,9.7s4.5,3,7.9,3a12.42,12.42,0,0,0,6.6-1.6,14,14,0,0,0,4.2-4.2,18.17,18.17,0,0,0,2.3-5.9,38.24,38.24,0,0,0,.7-6.8V683.2h9.1v44.3a27.15,27.15,0,0,0,.1,2.9h-8.7l-.3-7c-.6.8-1.4,1.7-2.2,2.6a18.07,18.07,0,0,1-3.3,2.6,23.44,23.44,0,0,1-4.5,2,20.32,20.32,0,0,1-5.8.8c-6.2,0-10.7-1.8-13.6-5.3s-4.4-8.4-4.4-14.6V683.2Z" transform="translate(-101.6 -249.1)"/><rect class="cls-1" x="604.8" y="413.6" width="9.1" height="67.7"/><path class="cls-1" d="M732.1,690.8h-8.5v-7.6h8.5V667.8h9.1v15.4H755v7.6H741.2v23.3q0,5.7,1.8,7.8a6.28,6.28,0,0,0,5,2.1,11.16,11.16,0,0,0,4.4-.8,16.87,16.87,0,0,0,3.5-2.4l4.2,5.6a19.47,19.47,0,0,1-6,4.1,20.4,20.4,0,0,1-7.4,1.3c-5,0-8.7-1.4-11-4.1s-3.5-6.9-3.5-12.7V690.8Z" transform="translate(-101.6 -249.1)"/><path class="cls-1" d="M765.7,683.2h9.1v27.7c0,4.5.9,7.7,2.7,9.7s4.5,3,7.9,3A12.42,12.42,0,0,0,792,722a14,14,0,0,0,4.2-4.2,18.17,18.17,0,0,0,2.3-5.9,38.24,38.24,0,0,0,.7-6.8V683.2h9.1v44.3a27.15,27.15,0,0,0,.1,2.9h-8.7l-.3-7c-.6.8-1.4,1.7-2.2,2.6a18.07,18.07,0,0,1-3.3,2.6,23.44,23.44,0,0,1-4.5,2,20.32,20.32,0,0,1-5.8.8c-6.2,0-10.7-1.8-13.6-5.3s-4.4-8.4-4.4-14.6V683.2Z" transform="translate(-101.6 -249.1)"/><path class="cls-1" d="M821,730.4V686.2c0-.6,0-1.6-.1-2.9h8.7l.3,7.6a34,34,0,0,1,2.1-2.7,16.93,16.93,0,0,1,3.2-2.7,22.49,22.49,0,0,1,4.4-2.1,17,17,0,0,1,5.7-.9,23,23,0,0,1,2.8.2,10.55,10.55,0,0,1,2.4.6l-2,8.5a12.59,12.59,0,0,0-4.7-.7,13.35,13.35,0,0,0-5.4,1.1,13.55,13.55,0,0,0-4.3,3.1,15.61,15.61,0,0,0-2.9,4.6,15.1,15.1,0,0,0-1.1,5.6v24.9Z" transform="translate(-101.6 -249.1)"/><path class="cls-1" d="M898.5,723.5a28,28,0,0,1-2.4,2.3,20.32,20.32,0,0,1-4.2,2.7,35.48,35.48,0,0,1-6.1,2.3,31.78,31.78,0,0,1-8,1,27.49,27.49,0,0,1-10.1-1.8,20.2,20.2,0,0,1-7.8-5.2,22.63,22.63,0,0,1-5-8,28.74,28.74,0,0,1-1.8-10.4,27.84,27.84,0,0,1,1.7-9.7,22.46,22.46,0,0,1,4.9-7.8,23.45,23.45,0,0,1,7.5-5.2,24.92,24.92,0,0,1,20,.4,21.6,21.6,0,0,1,7.2,6.2,26.35,26.35,0,0,1,4.1,8.8,39.53,39.53,0,0,1,1.3,10.4H862.5a14.15,14.15,0,0,0,1.4,5.8,15.73,15.73,0,0,0,3.4,4.6,14.38,14.38,0,0,0,4.9,3A16.16,16.16,0,0,0,878,724a20.31,20.31,0,0,0,15.4-6Zm-8.2-20.8a15.11,15.11,0,0,0-3.9-9.3c-2.3-2.6-5.5-3.9-9.7-3.9a15,15,0,0,0-5.8,1.1,13.49,13.49,0,0,0-4.4,2.9,11.91,11.91,0,0,0-2.8,4.2,12.06,12.06,0,0,0-1.1,4.9h27.7Z" transform="translate(-101.6 -249.1)"/><path class="cls-2" d="M733.8,280.2c-5,67.6,1.1,134.9-.5,203.1-.3,12.5,1.3,25.9.3,38.5-.1,1.5-.5,2.6-2.8,2.7a32.2,32.2,0,0,0-9.3,0c-1-9-.6-16-1.4-23.8-1.8-17-.8-30.8-.9-49.3-.2-31.7-2.9-63.9-.6-95.5a400.53,400.53,0,0,0,.3-41c-.6-11.5-1.2-20-.5-34.6a61.2,61.2,0,0,1,15.4-.1" transform="translate(-101.6 -249.1)"/><path class="cls-2" d="M172.7,261.1c5.5.5,8,2.2,8.4,8.4.6,9.3-.7,14.3.3,23.4,3.3,30.2-3.8,60.9-.6,91.2,1.7,16,.1,30.4.6,46.4.8,23.9-.2,51-.8,79H106.1c-2.6-3.7-2.1-22.3-1.3-27.2a69.31,69.31,0,0,0,.6-12.9c-.2-17.6.9-33.3.8-50.9-.1-10.3-.2-20.7-1.9-30.9-1.5-9,.8-24.8-.5-33.9-1.7-11.4-2.6-79.2-2-92.2,0,0,62.1-1.2,70.9-.4" transform="translate(-101.6 -249.1)"/><path class="cls-3" d="M309.2,277c-4.3-1.6-3.6,3.5-3.6,6.1s0,4-.1,7.3c-.1,6.5.5,24.4.5,30.8.1,10.8.8,20.3.6,28.8-.4,16-.4,32.1.2,48.2,1.6,39.9-.3,80,.9,119.7.1,3.4,2.3,4.4,5.4,5.2l4.6.8c-.2-34,2.5-69.7.4-103.6-.9-14.2-.4-28.3-.4-42.5,0-13.6-.1-27.2.1-40.8.2-8.3.1-16.5-.2-24.8-.3-10.2.2-29.9-2.5-32.6-1.4-1.7-3.1-1.6-5.9-2.6" transform="translate(-101.6 -249.1)"/><path class="cls-4" d="M235.7,495.9c4.5-.1,3.6-3.5,3.6-6.2,0-2.5.6-4,.6-7.3.1-6.6-.3-24.6-.4-31.1-.1-10.9-.7-20.4-.5-29,.4-16.2.6-32.4,0-48.6-1.4-40.3.7-80.7-.3-120.7-.1-3.5-2.4-3.6-6.3-3.8l-5.4.2c0,34.3.4,70.8.8,107.3.2,14.3,0,25.4,0,39.7,0,13.7.3,24.7.2,38.4,0,7.3-.3,15.3-.4,25.4-.1,10.3-.6,29.8,1.8,32.9,1.8,2.2,3.5,2.8,6.3,2.8" transform="translate(-101.6 -249.1)"/><path class="cls-2" d="M333.6,516.9c-4.1-.5-4.7-2.4-4.6-7.1.4-14-.5-44-2-62.3a245.6,245.6,0,0,1,1.1-50c1.4-11.4-.6-19.8-.6-33.9-.1-18.5,1-33,1-45.5-.1-7.7-.3-15.4-.7-23.1-.3-7.2-.2-23.1-.2-24.8,1.2-.4,5.5-.3,6.6-.2a21.32,21.32,0,0,1,8.7,2.3c1.7,7.3,1.2,22.8,1.2,31.5,0,5.1-.3,26.1,0,31.1.6,8.4.3,16.9.3,25.3.1,10.7.7,21.5.7,32.2,0,13.6-1.1,27.2-1.5,40.8-.6,25.1,2.6,57.5,2.3,78.5-.1,4.2.4,6.4-4,6.4.1-.2-4.1-.7-8.3-1.2" transform="translate(-101.6 -249.1)"/><path class="cls-5" d="M710.8,505.4c.8-10.4-1.4-26.5-1.4-34.9,0-4.9-.6-25.2-.3-30.1.5-8.1.1-16.3.1-24.5,0-10.4.6-20.8.5-31.2-.1-13.2-1.4-26.3-1.9-39.5-1-27.4,3.1-63.9,1.4-83.3-6.9-1.5-15.4-1.9-24.7-1.7-2.3,15.3-1.7,30.6-1.4,49.2.2,12.1-.9,26.1-.6,44.1.2,13.6,3.7,29.9,2.3,41a223.64,223.64,0,0,0-.8,48.4c2.2,23,1.4,60.7,1.7,61.2Z" transform="translate(-101.6 -249.1)"/><path class="cls-3" d="M783.3,506c1.1-28.4.9-45.5,1.4-70,.3-17.3-2.4-39.2-2.1-57.4.6-33.4,1-44.8-1.7-75.9-.6-7,.4-20.1.1-27.1-.2-4.7-.4-10.7-.5-15.4,0,0,22.9,4.9,40.7,1.2,28.3-6,75.1.2,75.1.2,2.8,4.8,3.2,15.8,3.1,18.5-.5,20.5-.9,13.3-.2,33.7.7,19.3-2.9,36.4-2.9,63.6,0,17.9,2.7,29.7,3.3,41.6.6,12.3-1.5,22.6-.7,42,.5,12,.2,43.5.4,46.4,0,0-84.3.5-102.3-1.7-9.5-1.2-13.7.3-13.7.3" transform="translate(-101.6 -249.1)"/><path class="cls-6" d="M629.1,249.8c.5,42.4.8,89.4,2.9,127.6.7,12.8.3,28.8.8,43.3.2,6.5-.9,19.4-1.4,28-.4,7-.2,14-.1,20.9.2,7.4.3,22.9-.3,23.2a44.92,44.92,0,0,0-13.7,0c-1.6-5.7-.5-11-.4-16.9.9-50.9-2.7-88-1.8-134.8.3-15.2-.2-36-1.4-51.1a214.94,214.94,0,0,1,1-40.9,133.58,133.58,0,0,1,14.4.7" transform="translate(-101.6 -249.1)"/><path class="cls-7" d="M770.6,252.1c1.3,21.9.3,36.3.7,55.1.4,16.5,2.2,30.6,1.2,49.5-.9,16.3.8,32.7,1.2,49.1.3,15.9.6,31.9.8,47.8.3,12.3.6,23.5.6,35.9,0,2.1-.2,6.5-.2,8.6a35.65,35.65,0,0,0-8.6-.4,80.31,80.31,0,0,1-22.1-.9c-2.6-.6-.4-43.7-.3-47.7.3-16.2.3-32.4.3-48.6-.1-16.4-1.6-33.8-1.9-50.1-.3-16.6.6-32.1.2-48.6-.4-16.7-.9-30.9-1.4-47.6-.1-3.4,3.1-5.2,8.5-3.7,7,1.8,14.5-.5,21,1.6" transform="translate(-101.6 -249.1)"/><path class="cls-3" d="M209.3,272.6c5,.7,8.7,5.4,8.8,11,.1,8,0,15.1-.2,22.1-.2,7.8-.5,15.4-.3,23.9.4,34.6,1.9,67.6.4,103.4-1.3,30.3,1.5,59.9,1.2,87.7-9.2-.5-20.2-1.4-29.1-1.8,2.5-51.3.9-99.9.3-153.3-.3-30,4.6-53.5.4-93.5a75.72,75.72,0,0,1,18.5.5" transform="translate(-101.6 -249.1)"/><path class="cls-8" d="M605.9,386.6c-.6-18.3-.5-52.8.9-71.2,1.5-20.4-3.5-51.3-14.8-50.7-9.8-.5-20.6.6-30.5,1.1-7.9.4-18,.4-25.9,1.1-13.5,1.2-15-.6-28.6-.6-17,0-31.6,1.4-48.6,1.4-16.4,0-34.7-.4-51.1-1.7-16.1-1.2-33.2-3.5-49.2-3-2.3.1-3.6,10.4-4.1,23.2-.4,12.3-1.2,38.8-.2,51.5,7.5-9.2,16.9-12.7,26.1-13.6,7.4-.7,16-1.1,24,.1.8.1-5.2-5.6-10.2-9.5-2.8-2.2-5.9-4.5-9.4-5-4.3-.6-8.8-.2-13.2-.5,3.2-2.8,8.8-9.8,22.5-8,7.4,1,19.8,13.9,24.3,10.4,5-3.9,3-19.2,9.6-20.9,5.4-1.4,8.9,19.1,11.5,23.6,6-7.7,15-13.2,24.7-14.3,5.1-.6,20.7,1.3,22.8,8.7,0-.1-19.9-3.6-32.2,14.2,17.5-6.9,35.2-4.6,50.1,6.8A48.82,48.82,0,0,1,514,340c4,5.4,3.5,7.8,3.4,10.9-6.5-1.3-12.5-12.5-23.7-15.9-9.4-2.9-19.5-2.3-28.9.5,21.3,3.5,50.8,31.8,40.6,55.1-3.3,7.5-4.2,2.5-5.4-3.8a36.52,36.52,0,0,0-7.1-16.7,81.43,81.43,0,0,0-10.3-11.7c-3.4-3.3-13.9-7.9-18.8-7.6,13.7,3.9,22.6,31.2,23.7,34.1,2.9,7.1,2.8,15.2,3,22.7.1,4.3.5,19.4-5,20.8.1,0,.9-36.5-24.9-57.4,6.7,11.8,7.3,26.3,6.5,39.5-.4,7.4-1.6,13.4-4.9,20.1-.7,1.5-3.4,8.2-4.5,8.4-3.4.8-1.6-20.4-2.1-24.2-.6-4.6-9-36-17.8-28.3-4.5,3.9-2.2,21.5-1.6,29.4.7,9.6,1.8,23.7,2,33.3.4,20,.9,34.1,3.5,54.2,23-12.4,124-64.1,138.4-21.4.1,1.4-.8.4-.8.4h0c-9.9-14.8-36.8-7.2-50.3-3-24,7.4-47,19.1-68.7,31.5,35.7.1,90.8,0,131.6,0a16.63,16.63,0,0,0,16.6-17.2c-.2-6.9-.4-15.2-.4-24.1,0-10.1.5-21,.8-31.1.4-19.9-2.3-31.8-3-51.9m-200.5,21a155.69,155.69,0,0,0-3.4,16.3c-.3,2.3-2.1,14.7-2.1,14.7a5,5,0,0,1-1.7-2.3c-5.1-11.5-4.1-29.7-4.1-29.8,1.8-28.6,12-36.3,12-36.2-4.6-2.6-13.8,8.2-18.7,15-6.5,9.1-5.4,15.3-6.2,29.5-3.5-.7-6.9-6.5-7.1-10.8-1.2-22.3,8.7-42.7,19.4-51.1,1.2-1.1-12.3,1.6-14.7,2.5-8.8,3.6-15.1,9.9-19.4,18.3-9.1,17.6-3.3,38.6-4.5,57.9-.7,11.1.9,22.1.8,33.2-.1,8.4-2.2,10,6.2,10.7a84.58,84.58,0,0,1,9.9,1.5c19.8,4.3,35.6,13.4,49.5,27.8,2.2-25.7,2.5-49.4,2.5-75.2,0-10.2,1.7-32.1-5.1-40.8s-11.7,13-13.3,18.8M357,482.7c-.5,10,.2,18,.3,29.7,9.8-.7,15.7.2,25.5.8,9.4.6,19.4-.4,28.8.8-14.4-15.6-32.8-29.4-54.6-31.3m16.1-137.8c3.5-2.4,18-9.7,19.7-9.6-10.4-4-22.9-3-32,2.8-8.9,5.6-5.9,21.2-7.1,31.2,4.4-8.9,11-18.8,19.4-24.4" transform="translate(-101.6 -249.1)"/><path class="cls-4" d="M668,269.3a2.87,2.87,0,0,1,2.4,2.6c.7,27.8,1.3,52.8,3.1,81.6.7,11.4,1.3,28.2-.4,41.6-2.2,17.6,2.3,31.9,1.1,49.6-1.6,23.4,1.8,42.5.5,65.9l-29,.6c-2.4.1-4.6-2.2-4.2-7.8s-.1-29.6-.1-47.7,2.4-34.8.4-55c-1-9.9,1.4-20.5.8-30.4-1-18-1.6-33.8-2-51.8-.2-10.7,0-27-.3-37.5-.2-7.3,1.4-12.7,5.4-14.5,4.4-2,17.1,2.1,22.3,2.8" transform="translate(-101.6 -249.1)"/><path class="cls-7" d="M249.2,482.4c-.3,6.7-.4,9.1-.4,11.6,0,1.7,1.5,2,2.9,2.7.9.5,8.7,2.1,11.3,2.7a39.24,39.24,0,0,0,7.6.8c7.5-.1,15,2.5,22.5,1.8a1.85,1.85,0,0,0,.7-.2c.6-.4,2.7-1.4,3.3-5.6.9-6.4-.9-12,.1-23.6s.1-43.1.2-50.7c.5-57.4-2.8-58.3-1.3-102.6.5-15.6.1-20.8-1.6-37.2-.4-4.3-2.4-15.3-1.4-22.9.4-2.8-1.3-5.1-4-5.2-12.4-.6-38.5,1.3-38.5,1.3-1.4,5.8-1.7,11.3-1.3,19,.2,5.4-.8,14.3-.8,19.7,0,6.1-.4,12.2-.1,18.3.7,16.4,1.2,32.8.7,49.1-1.3,41.5,2.4,65.6.8,106.3Z" transform="translate(-101.6 -249.1)"/></svg>