<svg id="layer" xmlns="http://www.w3.org/2000/svg" viewBox="0 0 600 209.5"><defs><style>.cls-1{fill:#fff;}.cls-2{fill:#004897;}</style></defs><path class="cls-1" d="M256.8,279.5c0-43.7,29.8-61.9,58.6-61.9s58.5,18.2,58.5,61.9-29.8,61.8-58.5,61.8-58.6-18.2-58.6-61.8m84.9,0c0-21.9-9.5-35.3-26.3-35.3S289,257.6,289,279.5s9.5,36.1,26.4,36.1,26.3-14.2,26.3-36.1" transform="translate(-20.4 -217.6)"/><path class="cls-1" d="M382.7,339V219.9h46.5c30.6,0,49.3,10.1,49.3,38.8,0,18.7-7.9,29.5-23.5,34.8l27.5,45.6H448.4l-25.2-41.4h-8.9V339Zm31.6-65.8h13.9c13.2,0,19-3.7,19-13.7s-5.8-13.5-19-13.5H414.3Z" transform="translate(-20.4 -217.6)"/><polygon class="cls-1" points="469.8 121.4 469.8 2.3 502 2.3 502 43.8 534.9 2.3 572.3 2.3 532.2 49.3 575.8 121.4 539.4 121.4 511.2 73.8 502 85.3 502 121.4 469.8 121.4"/><polygon class="cls-1" points="249.1 2.3 212.5 2.3 191.4 39 170.4 2.3 133.6 2.3 175.2 71.7 175.2 121.4 207.6 121.4 207.6 71.7 249.1 2.3"/><path class="cls-1" d="M598.1,228.8a11.06,11.06,0,0,1,11.2-11.2,10.89,10.89,0,0,1,11.1,11.1,11.06,11.06,0,0,1-11.2,11.2,10.83,10.83,0,0,1-11.1-11.1m20.1,0a8.89,8.89,0,0,0-9-9.2,9.1,9.1,0,1,0,9,9.2m-13.3-6.4h4.7c3,0,4.7,1.3,4.7,4a3.38,3.38,0,0,1-2.2,3.5l2.4,4.6h-3.1l-2.2-4.3h-1.5v4.3h-2.9V222.4Zm4.5,5.8c1.3,0,2-.4,2-1.5s-.7-1.6-2-1.6h-1.6v3.1Z" transform="translate(-20.4 -217.6)"/><path class="cls-2" d="M39.5,251.8a22.14,22.14,0,0,1,3.6-4.9L31.3,230.7l6.9-5L50,241.8a23.2,23.2,0,0,1,5.8-1.9V219.8H20.4v25.7Z" transform="translate(-20.4 -217.6)"/><path class="cls-2" d="M45.2,263a14.85,14.85,0,0,0,10.7,14.3V248.7A14.85,14.85,0,0,0,45.2,263" transform="translate(-20.4 -217.6)"/><path class="cls-2" d="M64.4,219.8v9l9.6-5.5,3.4,5.9-12.9,7.5v18.9l16.4-9.4v-15h6.8v11l7.8-4.5,4.3,7.4L92,249.6l9.5,5.5L98.1,261,85,253.5,68.6,263,85,272.5,98,265l3.4,5.9-9.6,5.5,7.8,4.5-4.3,7.4-7.8-4.5v11H80.7V279.9l-16.4-9.5v18.9l13,7.5-3.4,5.9-9.6-5.5v9H55.8v-20a21.94,21.94,0,0,1-5.8-1.9L38.2,300.5l-6.9-5,11.8-16.2a24.74,24.74,0,0,1-3.6-4.9l-19,6.2V339H139.7V219.8Z" transform="translate(-20.4 -217.6)"/><path class="cls-2" d="M20.4,254.6v16.8l16.4-5.3a30.28,30.28,0,0,1-.2-3.1c0-1,.1-2.1.2-3.1Z" transform="translate(-20.4 -217.6)"/><rect class="cls-1" x="0.1" y="174.2" width="7.6" height="34.6"/><polygon class="cls-1" points="40.5 174.2 40.5 196.2 40.4 196.2 25.9 174.2 18.3 174.2 18.3 208.8 25.3 208.8 25.3 186.5 25.4 186.5 40.5 208.8 47.5 208.8 47.5 174.2 40.5 174.2"/><path class="cls-1" d="M76.3,418.5l5.7-3.4a10.28,10.28,0,0,0,9.4,5.9c3.5,0,6-1.3,6-4s-2.5-3.7-7-5c-6.2-1.7-12.6-3.3-12.6-10.6,0-6.5,5-10.3,12.5-10.3,7.1,0,11.3,3.4,13.8,7.1l-5.3,4a10.31,10.31,0,0,0-8.5-4.9c-3.2,0-5,1.4-5,3.5,0,2.8,2.6,3.7,7.1,5,6.1,1.6,12.5,3.5,12.5,10.7,0,5.6-4.2,10.5-13.9,10.5-7.5,0-12.1-3.5-14.7-8.5" transform="translate(-20.4 -217.6)"/><polygon class="cls-1" points="91 174.2 91 180.5 101.3 180.5 101.3 208.8 108.9 208.8 108.9 180.5 119.3 180.5 119.3 174.2 91 174.2"/><path class="cls-1" d="M156.8,401.3h0l4.1,11.8h-8.1Zm-3.4-9.7-12.3,34.8h7l2.7-7.7h11.8l2.6,7.7h7.7l-12.3-34.8Z" transform="translate(-20.4 -217.6)"/><polygon class="cls-1" points="160.1 174.2 160.1 208.8 182.9 208.8 182.9 202.6 167.7 202.6 167.7 174.2 160.1 174.2"/><polygon class="cls-1" points="190.6 174.2 190.6 208.8 213.5 208.8 213.5 202.6 198.2 202.6 198.2 174.2 190.6 174.2"/><path class="cls-1" d="M256.4,409c0-12,7-17.9,15.7-17.9s12.5,4.7,14,10.9l-7.2,2.1c-1.1-4-2.8-6.7-6.9-6.7-5.2,0-8,4.4-8,11.6s2.9,11.9,8.1,11.9c4.1,0,6.1-2.6,7.3-7.3l7.2,1.6c-1.7,7-5.8,11.8-14.5,11.8-9,0-15.7-5.8-15.7-18" transform="translate(-20.4 -217.6)"/><path class="cls-1" d="M318.7,409.1c0-7.2-3.4-11.6-8.7-11.6s-8.7,4.4-8.7,11.6,3.3,11.8,8.7,11.8,8.7-4.6,8.7-11.8m-25,0c0-12.2,8-18,16.3-18s16.3,5.8,16.3,18-7.9,18-16.3,18-16.3-5.9-16.3-18" transform="translate(-20.4 -217.6)"/><polygon class="cls-1" points="337.1 174.2 337.1 196.2 337 196.2 322.5 174.2 314.9 174.2 314.9 208.8 321.9 208.8 321.9 186.5 322 186.5 337.1 208.8 344.1 208.8 344.1 174.2 337.1 174.2"/><polygon class="cls-1" points="354.7 174.2 354.7 208.8 362.3 208.8 362.3 195 373.2 195 373.2 188.9 362.3 188.9 362.3 180.5 377.5 180.5 377.5 174.2 354.7 174.2"/><rect class="cls-1" x="385.4" y="174.2" width="7.6" height="34.6"/><path class="cls-1" d="M431.6,420.2h3.5c7.5,0,10.4-3.4,10.4-11.2,0-7.4-2.9-10.8-10.5-10.8h-3.4Zm-7.6,6.2V391.8h10.6c10.6,0,18.5,4.5,18.5,17.1,0,13-8.1,17.5-18.5,17.5Z" transform="translate(-20.4 -217.6)"/><polygon class="cls-1" points="441.7 174.2 441.7 208.8 466.2 208.8 466.2 202.6 449.4 202.6 449.4 194 460.9 194 460.9 188 449.4 188 449.4 180.5 465.3 180.5 465.3 174.2 441.7 174.2"/><polygon class="cls-1" points="496.8 174.2 496.8 196.2 496.7 196.2 482.2 174.2 474.6 174.2 474.6 208.8 481.6 208.8 481.6 186.5 481.7 186.5 496.8 208.8 503.8 208.8 503.8 174.2 496.8 174.2"/><path class="cls-1" d="M533.3,409c0-12,7-17.9,15.7-17.9s12.5,4.7,14,10.9l-7.2,2.1c-1.1-4-2.8-6.7-6.9-6.7-5.2,0-8,4.4-8,11.6s2.9,11.9,8.1,11.9c4.1,0,6.1-2.6,7.3-7.3l7.2,1.6c-1.7,7-5.8,11.8-14.5,11.8-9,0-15.7-5.8-15.7-18" transform="translate(-20.4 -217.6)"/><polygon class="cls-1" points="551.7 174.2 551.7 208.8 576.1 208.8 576.1 202.6 559.4 202.6 559.4 194 570.9 194 570.9 188 559.4 188 559.4 180.5 575.3 180.5 575.3 174.2 551.7 174.2"/></svg>