<?xml version="1.0" encoding="utf-8"?>
<!-- Generator: Adobe Illustrator 19.2.1, SVG Export Plug-In . SVG Version: 6.00 Build 0)  -->
<svg version="1.1" id="layer" xmlns="http://www.w3.org/2000/svg" xmlns:xlink="http://www.w3.org/1999/xlink" x="0px" y="0px"
	 viewBox="0 0 652 652" style="enable-background:new 0 0 652 652;" xml:space="preserve">
<style type="text/css">
	.st0{fill:#AF884D;}
</style>
<path class="st0" d="M150.5,263.9l4.1-17.1l-5.2,3.9l1.3,3c-1.5,2-3.9,3.1-6.4,3c-3.3,0.1-6.4-1.7-7.9-4.6l2.4-4.1l-3.6-5.6
	l-3.6,5.6l2.4,4.1c-1.5,2.9-4.6,4.7-7.9,4.6c-2.5,0.1-4.9-1-6.4-3l1.3-3l-5.2-3.9l4.1,17.1L150.5,263.9L150.5,263.9z M135.1,254.7
	c2.7,3.5,7.2,5.1,11.5,4.2c-3.4,2.8-8.3,2.6-11.5-0.5c-3.1,3.1-8.1,3.3-11.5,0.5C128,259.8,132.4,258.2,135.1,254.7z M149.4,269.7
	l0.6-2.8h-29.7l0.6,2.8C120.9,269.7,149.4,269.7,149.4,269.7z M22.5,266.9c13.8-2.8,28.1-0.7,40.5,5.9c1.7,0.9,0.5,1.1-0.8,0.6
	c-3.9-1.6-7.9-2.8-12.1-3.4c-9-1.7-18.2-0.8-26.6,2.7c-0.8,0.4-0.9,1.5,0.5,1.1c12.8-3.9,26.6-3.2,38.9,1.9c0.7,0.1,1.2,0.6,1.4,1.3
	c-0.3,0.6-0.9,0.9-1.5,0.7c-2.3-0.4-4.7-0.1-6.7,1.1c0,1.5,1,2.8,2.4,3.2c1,0.2,2,0.2,3,0c0.4,0,0.3,0.2,0.1,0.3
	c-5.2,2.1-5,11.1-3.4,16.5c1.8,6.2,5.8,15.9,0,26.2c-6.2,10.8-27.6,8.9-21.5,33.8c1-2,1.3-4.2,1-6.4c0-0.1,0.1-0.2,0.2-0.3
	c0.1,0,0.1,0,0.2,0c2.9,2.9,5.3,15.7-2,23.1c0,0-0.5,15.1,4.4,23.5h6.2c0-2.3-1.1-4.5-2.9-6c-1.5-5.2-1.7-10.6-0.7-15.9
	c3.4-14,14.6-8.9,24.9-27.6c0.8-1.4,2.4,9.1-11.7,18.1c0,0,0.6,5.2,4.2,4.6c4.5-0.8,12.4,0.2,15.7,4.4c0.1,1.1,0.6,2.2,1.6,2.9
	c2.4,0.6,8.7,0.1,5.8-2.6c-5.3-4.3-11.4-7.7-17.9-9.8c2-2,12.7-8.2,11.6-12.7c-0.6-2.6-1.5-5.2-2.8-7.5c0,0,12.7-8.2,13.7-22
	c-6.3,3-13.7,2.3-16.4-3.4c0-0.1,0-0.1,0.1-0.2c0,0,0.1,0,0.1,0c2.8,2.8,9.7,3.9,16.2,0.9c2.4-1.1,6-2.8,8.6-0.8
	c0.1,0.1,0.2,0.3,0.2,0.5c-0.4,4.4-1.4,9.3-5.1,12c-2,0.1-3.9,1.2-5,2.8c0.4,2,1.7,3.8,3.6,4.7c0.9-0.7,1.8-1.4,2.7-2.2
	c0.6-0.5,0.8-2.4,1.6-3.6c2.7-3.6,5-7.4,7-11.4c0.1-0.1,0.2-0.2,0.3-0.1c0.1,0,0.1,0.1,0.1,0.2c0,4.7-2.3,12.3-10,19.3
	c0,0.5-0.1,0.9-0.1,1.4c0,36.8,30.3,30.3,43.3,45.6c13-15.4,43.3-8.8,43.3-45.6c0-0.4,0-0.9-0.1-1.4c-7.7-7-10.1-14.6-10-19.3
	c0-0.1,0.1-0.2,0.3-0.2c0.1,0,0.2,0.1,0.2,0.1c2,4,4.3,7.8,7,11.4c0.9,1.2,1,3.1,1.6,3.6c0.8,0.8,1.7,1.5,2.7,2.1
	c1.8-1,3.1-2.7,3.6-4.7c-1.1-1.7-3-2.7-5-2.8c-3.7-2.7-4.8-7.6-5.1-12c0-0.2,0.1-0.4,0.2-0.5c2.7-1.9,6.3-0.3,8.6,0.8
	c6.5,3,13.4,2,16.2-0.9c0-0.1,0.1-0.1,0.2,0s0.1,0.1,0,0.2c-2.7,5.7-10,6.4-16.4,3.4c1,13.9,13.7,22,13.7,22
	c-1.3,2.4-2.2,4.9-2.8,7.5c-1.1,4.5,9.6,10.7,11.6,12.7c-6.5,2.2-12.6,5.5-17.9,9.8c-2.8,2.7,3.4,3.2,5.8,2.6
	c0.9-0.7,1.5-1.7,1.6-2.9c3.4-4.1,11.2-5.1,15.7-4.4c3.6,0.6,4.2-4.6,4.2-4.6c-14-9.1-12.4-19.5-11.7-18.1
	c10.3,18.8,21.5,13.6,24.9,27.6c1,5.3,0.7,10.7-0.7,15.9c-1.8,1.5-2.9,3.7-2.9,6h6.2c4.9-8.4,4.4-23.5,4.4-23.5
	c-7.4-7.4-5-20.2-2-23.1c0.1-0.1,0.2-0.1,0.3,0c0,0.1,0.1,0.1,0,0.2c-0.3,2.2,0,4.4,1,6.4c6.1-24.9-15.3-23-21.5-33.8
	c-5.8-10.2-1.8-19.9,0-26.2c1.6-5.4,1.8-14.4-3.4-16.5c-0.3-0.1-0.3-0.3,0.1-0.3c1,0.2,2,0.2,3,0c1.4-0.4,2.4-1.7,2.4-3.2
	c-2-1.2-4.4-1.5-6.7-1.1c-0.6,0.1-1.2-0.2-1.5-0.7c0.1-0.7,0.7-1.2,1.4-1.3c12.4-5.1,26.1-5.7,38.9-1.9c1.4,0.4,1.3-0.7,0.5-1.1
	c-8.4-3.5-17.7-4.4-26.6-2.7c-4.2,0.6-8.2,1.8-12.1,3.4c-1.3,0.5-2.5,0.3-0.8-0.6c12.4-6.6,26.7-8.7,40.5-5.9
	c1.2,0.2,1.3-0.7,0.4-1.1c-8.8-2.5-18.2-2.6-27.1-0.2c-13.1,3-24.8,10.1-33.6,20.2c-1.6,1.9-3.1,3.5-4.3,4.8
	c-0.5,1.9,0.2,3.9,1.8,5.1c0.7,1.7,1.3,2.2,3,1.5c3.1-1.2,6.3-2.2,9.5-2.9c2.4-0.9,4.3-3,4.9-5.5c0.1-0.3,0.5-0.6,0.6,0.1
	c0.2,1.2,0.1,2.4-0.3,3.5c-2.3,4.9-12.6,4.9-16.8,16.8c-4.8,0.8-9.4,2.2-13.8,4.3c-0.2,0.1-0.4,0-0.5-0.2c0-0.1,0-0.1,0-0.2
	c-0.1-14.9,10.2-28.3,10.2-28.3l-6.9-11.3H95.4l-6.8,11.3c0,0,10.3,13.4,10.2,28.3c0,0.2-0.2,0.4-0.4,0.4c-0.1,0-0.1,0-0.2,0
	c-4.4-2.1-9-3.5-13.8-4.3c-4.2-11.9-14.4-11.9-16.8-16.8c-0.4-1.1-0.5-2.3-0.3-3.5c0.1-0.8,0.5-0.5,0.6-0.1c0.6,2.5,2.5,4.6,4.9,5.5
	c3.2,0.7,6.4,1.6,9.5,2.9c1.6,0.7,2.3,0.2,3-1.5c1.6-1.1,2.3-3.2,1.8-5.1c-1.2-1.3-2.7-2.8-4.3-4.8c-8.8-10.1-20.6-17.2-33.6-20.2
	c-8.9-2.4-18.2-2.3-27.1,0.2C21.2,266.2,21.3,267.1,22.5,266.9z M172,361c-0.5,10.3-33.5,16.8-36.8,23.3
	c-3.3-6.6-36.3-13.1-36.8-23.3c6,8.8,32.6,13.2,36.8,19.1C139.3,374.1,166,369.7,172,361z M168,355c-1.9,1.7-10.7,7-13.2,3.7
	L135,332.3l-19.5,26.4c-2.5,3.3-11.4-1.9-13.2-3.7c-0.7-0.6-0.8-1.7-0.3-2.4c0.5-0.9,1-1.7,1.5-2.5c1.6-2.2,3.7,1,9.2,4.2
	c-0.7,1.3-2.2,2-3.6,1.9c-0.5,0-1.3-0.1-1.4-0.1c-1,0,1,1.3,3,1.3c1.9-0.1,3.6-1.1,4.7-2.6c0,0,14.4-19.4,35.5-47.9
	c-0.2-0.2-0.3-0.5-0.4-0.7l11.5-15.6c1.4-0.7,3.1-0.2,3.8,1.2c0,0,0,0.1,0.1,0.1v0v0.1L154.2,308c-0.4,0.2-0.8,0.2-1.2,0.1
	l-16.5,22.3l0,0l18.2,24.3c1.1,1.6,2.8,2.5,4.7,2.6c2,0,4-1.3,3-1.3c-0.1,0-0.9,0.1-1.4,0.1c-1.5,0.1-2.9-0.6-3.7-1.8
	c5.6-3.4,7.6-6.4,9.2-4.3c0.6,0.8,1.1,1.6,1.6,2.5C168.7,353.3,168.6,354.3,168,355z M133.8,326.8c-0.4,0.7-0.9,1.4-1.4,2L117,308.1
	c-0.3,0.1-0.7,0-1-0.1l-11.9-16l0-0.1c0.6-1.4,2.3-2.1,3.7-1.5c0,0,0,0,0.1,0l11.6,15.5c0,0.3-0.1,0.6-0.3,0.9l0,0L133.8,326.8z
	 M129.9,300c0-2.9,2.4-5.2,5.2-5.2c2.9,0,5.2,2.4,5.2,5.2c0,2.9-2.3,5.2-5.2,5.2C132.2,305.2,129.9,302.9,129.9,300
	C129.9,300,129.9,300,129.9,300L129.9,300z M98.6,279.8l-3.3,5.5c0-0.1,3.3,4.5,1.7,8.3c-0.8-3.2-2.4-6.1-4.7-8.4l4.9-8.1h75.6
	l4.9,8.1c-2.3,2.3-3.9,5.2-4.7,8.4c-1.6-3.7,1.7-8.3,1.7-8.3l-3.3-5.5H98.6z M340.5,315.8c-1.2-0.3-2.4,0.5-2.7,1.7
	c-0.3,1.2,0.5,2.4,1.7,2.7c1.2,0.3,2.4-0.5,2.7-1.7c0.1-0.3,0.1-0.7,0-1C342,316.6,341.4,316,340.5,315.8z M297.7,300.6
	c-1.7,1.3-4,1.1-5.5-0.3c-0.3-0.3-7.1-8.4-7.1-8.4c3.3-0.8,5.8-3.7,6-7.1c0-6.5-4.7-8.2-11.1-8.2h-11.5c0,0-0.8,2,1.7,2h1v23h-1.9
	c0,0-0.9,2,1.8,2h4.7c2.6,0,2.8-1.7,2.2-2.2c-1.1,0.2-1.9,0.3-2.4,0.3v-8.9h4.9c0,0,7.1,8,7.7,8.7c1.3,1.4,3.2,2.3,5.1,2.4
	c2,0.1,3.9-0.7,5.2-2.3C298.4,301.1,298.1,300.8,297.7,300.6z M280.1,290.6h-4.6v-12.1h4.3c3.4,0,6.9,1.1,6.9,6.1c0,3.4-2.8,6-6.2,6
	C280.4,290.6,280.3,290.6,280.1,290.6L280.1,290.6z M558.5,282.4v-5.9h-21.4c0,0-0.7,2,0.9,2h1.7v22.7h-2.2
	c-0.6,0.1-0.6,2.3,0.2,2.3h21.1v-3.1c-0.1-0.9,0-1.9,0.3-2.8c-1.9-0.5-2.6,0.6-2.6,2.6v1H544v-10h8.9c0.9,0,1.7-0.7,1.7-1.7
	c0-0.2,0-0.4-0.1-0.5H544v-10.4h12.2v1.6C556.2,282,557.2,282.6,558.5,282.4z M507.8,301.2c-0.6,0.1-0.6,2.3,0.2,2.3h21.1v-3.1
	c-0.1-0.9,0-1.9,0.3-2.8c-1.9-0.5-2.6,0.6-2.6,2.6v1h-12.6v-10h8.9c0.9,0,1.7-0.7,1.7-1.7c0-0.2,0-0.4-0.1-0.5h-10.6v-10.4h12.2v1.6
	c0,1.9,1,2.5,2.3,2.3v-5.9h-21.4c0,0-0.7,2,0.9,2h1.7v22.7L507.8,301.2L507.8,301.2z M315.3,275.8c-5.5,0-13.9,2.8-13.9,14.5
	c-0.3,7.4,5.5,13.6,12.9,13.8c0.2,0,0.4,0,0.6,0c3.3,0,14.6-1.1,14.6-13.9C329.5,278.5,321,275.8,315.3,275.8z M315.2,301.9
	c-3.5,0-9.5-2.4-9.5-11.6s5.4-12.6,9.8-12.6c3.4,0,9.6,2.6,9.6,12.6C325.2,300.6,318.8,301.9,315.2,301.9L315.2,301.9z M395.1,336.2
	v-10.1h0.8c1.2,0,2.1-1,2.1-2.1v-0.3h-5.2c-1.2,0-2.1,1-2.1,2.2c0,0,0,0,0,0v10.7h-8.1v-12.9h-1c-1.7-0.1-3.2,1.3-3.3,3
	c0,0.1,0,0.2,0,0.3v9.6h-35.3v-10.5h0.8c1.2,0,2.1-0.9,2.1-2.1c0,0,0,0,0,0v-0.3h-5.2c-1.2,0-2.1,1-2.1,2.1v16.6c0,3.7-5,4.2-8,1.2
	c-0.8,1.2-0.6,2.8,0.6,3.7c2.5,1.8,11.7,1.9,11.7-5.3v-3.6c0.4,0.4,0.9,0.5,1.4,0.5h35.1c0.7-0.1,1.4-0.4,1.9-1c0.3,0.6,0.9,1,1.6,1
	h8.9C393.4,338.7,394.7,337.6,395.1,336.2L395.1,336.2z M396.3,301.2c-0.6,0.1-0.6,2.3,0.2,2.3h20.4v-3.1c-0.1-1,0-2.1,0.3-3
	c-1.9-0.5-2.6,0.8-2.6,2.7v1h-11.6v-22.7h0.2c0.9,0.1,1.8-0.6,1.9-1.5c0-0.2,0-0.3,0-0.5H397c-0.6,0.3-0.9,2,0.5,2h1.1v22.7H396.3
	L396.3,301.2z M334.5,278.5h1.1l9.5,14.3v8.7h-1.7c0,0-0.9,2,1.8,2h3.7c2.6,0,2.8-1.7,2.2-2.2c-0.6,0.1-1.2,0.2-1.6,0.2v-9.1l9-13.9
	h0.9c1,0.1,1.8-0.6,1.9-1.6c0-0.1,0-0.3,0-0.4h-8.2c-0.6,0.3-0.9,2,0.5,2h2.2l-7.6,11.8l-7.7-11.8c1-0.1,1.7-1,1.6-1.9
	c0,0,0-0.1,0-0.1h-7.9C333.5,276.8,333.2,278.5,334.5,278.5z M421.9,315.6c-1-0.2-2.1,0.4-2.3,1.4c-0.1,0.3-0.1,0.6,0,0.9
	c0.2,0.7,0.7,1.3,1.5,1.5c1,0.2,2.1-0.4,2.3-1.5c0.1-0.3,0.1-0.6,0-0.9C423.2,316.3,422.6,315.8,421.9,315.6z M386.7,303.5
	c2.6,0,2.8-1.7,2.2-2.2c-0.6,0.1-1.2,0.2-1.7,0.2l-9.5-25h-6.5c0,0-0.7,2,1.3,2l-9.1,23c-0.3,0-2.5,0-2.8,0c0,0-0.9,2,1.8,2h3.7
	c2.6,0,2.8-1.7,2.2-2.2c-1,0.2-1.9,0.2-2.3,0.3l2.6-6.8h11.8l2.6,6.7h-1.8c0,0-0.9,2,1.8,2L386.7,303.5L386.7,303.5z M369.5,292.7
	l5.1-13.1h0.1l4.9,13.1H369.5L369.5,292.7z M381.1,315.8c-1.2-0.3-2.4,0.5-2.7,1.7c-0.3,1.2,0.5,2.4,1.7,2.7
	c1.2,0.3,2.4-0.5,2.7-1.7c0.1-0.3,0.1-0.7,0-1C382.6,316.6,381.9,316,381.1,315.8L381.1,315.8z M462.9,301.4v-9.5
	c0.8-0.1,1.4-0.8,1.3-1.6c0-0.1-0.1-0.3-0.1-0.4h-8.5c-0.3,0.9,0.2,1.8,1.1,2.1c0.2,0.1,0.4,0.1,0.6,0.1h2.4v8.8
	c-2.8,2.1-17.4,2.1-17.3-10.9c0.1-10.1,7.3-12.5,12.1-12.5c2.2-0.1,4.5,0.3,6.6,1.2c-0.1,0.8-0.1,1.7,0,2.5c0,0.8,0.5,1.4,1.3,1.5
	c0.2,0,0.5,0,0.7-0.1v-4.8c-2.9-1.5-6.1-2.3-9.4-2.2c-8.4-0.4-15.6,6-16,14.4c0,0,0,0,0,0c0,8.9,7.2,14,15.2,14
	C456.3,304.1,459.8,303.2,462.9,301.4L462.9,301.4z M517.3,342c-1.2-0.3-2.4,0.5-2.7,1.7c-0.3,1.2,0.5,2.4,1.7,2.7
	c1.2,0.3,2.4-0.5,2.7-1.7c0.1-0.3,0.1-0.7,0-1C518.8,342.8,518.1,342.2,517.3,342L517.3,342z M515.1,325.7v10.8h-34v-21.1h0.8
	c1.2,0,2.1-0.9,2.1-2.1c0,0,0,0,0,0v-0.3h-5.2c-1.2,0-2.1,0.9-2.1,2.1c0,0,0,0,0,0v21.1c0.5,1.4,1.7,2.4,3.2,2.6h36.4
	c1.5-0.2,2.7-1.2,3.2-2.6v-10.1h0.8c1.2,0,2.1-1,2.1-2.1v-0.3h-5.2C516.1,323.6,515.1,324.5,515.1,325.7L515.1,325.7z M511.8,342
	c-1.2-0.3-2.4,0.5-2.7,1.7c-0.3,1.2,0.5,2.4,1.7,2.7c1.2,0.3,2.4-0.5,2.7-1.7c0.1-0.3,0.1-0.7,0-1
	C513.3,342.8,512.6,342.2,511.8,342L511.8,342z M534.7,323c-4.1,0-10.1,2.2-10.4,8.3c-0.4,9.4,9.4,9.8,13.4,8.1v3.2
	c0,3-4.8,4.7-8.2,1c-0.9,1.1-0.7,2.7,0.5,3.6c0,0,0.1,0.1,0.1,0.1c3.1,1.8,11.7,1.3,11.7-5.9v-15.4c0.8,0.2,1.7-0.3,1.9-1.1
	c0.1-0.3,0.1-0.7-0.1-1C540.7,323.3,537.7,323,534.7,323L534.7,323z M537.7,337.4c-3.1,1-9.1-0.1-9.1-5.7c-0.3-3.6,2.4-6.8,6-7
	c1.1-0.1,2.1,0.1,3.1,0.5V337.4z M587.1,276.5c-0.6,0.3-0.9,2,0.5,2h2.3v20.3h-0.5L575,276.5h-7.5c-0.2,0.9,0.3,1.8,1.2,2
	c0.2,0,0.3,0.1,0.5,0h1.2v23c-0.8,0-0.2,0-3.2,0c0,0-0.9,2,1.8,2h5c2.6,0,2.8-1.7,2.2-2.2c-0.9,0.1-1.8,0.2-2.7,0.3l-0.8,0v-20.3
	h0.2l14.5,22.3h3.5c0.8,0.1,1.5-0.5,1.5-1.3c0-0.1,0-0.2,0-0.3v-23.4h0.9c1,0.1,1.8-0.6,1.9-1.6c0-0.1,0-0.3,0-0.4L587.1,276.5
	L587.1,276.5z M613.8,288.6c-3-1.1-7.1-2.3-7.1-5.5c0.3-3.1,3.1-5.4,6.3-5.2c1.9-0.1,3.8,0.3,5.4,1.2c0,0,0,1.2,0,2.9
	c-0.1,1,0.6,1.8,1.6,1.9c0.2,0,0.5,0,0.7-0.1v-5.7c-6.9-4.9-18.3-2.9-18.3,5.3c0,5.6,6.4,7.4,9.8,8.7c3.2,1.3,5.2,2.2,5.2,5.7
	c-0.1,3-2.6,5.3-5.6,5.3c-0.2,0-0.4,0-0.7-0.1c-5.3,0-6.8-2-6.8-2v-4.1c-1-0.2-2.1,0.4-2.3,1.5c0,0.2-0.1,0.5,0,0.7v3
	c0,0,2.4,2.8,9,2.8c7.1,0,10.5-4.2,10.5-8.1C621.5,291.2,616.1,289.4,613.8,288.6z M482.2,301.3c-1.1,0.2-1.9,0.3-2.4,0.3v-8.8h4.9
	c0,0,7.1,8,7.7,8.7c1.3,1.4,3.2,2.3,5.1,2.4c2,0.1,3.9-0.7,5.2-2.3c-0.1-0.4-0.4-0.8-0.7-0.9c-0.7,0.5-1.6,0.8-2.5,0.8
	c-1.1,0.1-2.3-0.3-3-1.2c-0.3-0.3-7.1-8.4-7.1-8.4c3.3-0.8,5.8-3.7,6-7.1c0-6.5-4.7-8.3-11.1-8.3h-11.5c0,0-0.8,2,1.7,2h1v23h-1.9
	c0,0-0.9,2,1.8,2h4.7C482.6,303.5,482.8,301.8,482.2,301.3z M479.8,278.5h4.3c3.4,0,6.9,1.1,6.9,6.1c-0.1,3.4-2.8,6-6.2,6
	c-0.1,0-0.3,0-0.4,0h-4.6L479.8,278.5L479.8,278.5z M552.2,325.7v16.6c0,4.5-5,4.2-8,1.2c-0.8,1.2-0.6,2.8,0.6,3.7
	c2.5,1.8,11.7,1.9,11.7-5.3v-15.8h0.8c1.2,0,2.1-0.9,2.1-2.1c0,0,0,0,0,0v-0.3h-5.2C553.2,323.6,552.2,324.5,552.2,325.7
	C552.2,325.7,552.2,325.7,552.2,325.7L552.2,325.7z M430.3,336.5h-4.1c-3.9,0.1-7.2-2.9-7.5-6.8c-0.1-3.1,2.3-5.7,5.4-5.8
	c0.1,0,0.2,0,0.3,0c1.1-0.1,2.2,0.2,3.2,0.6c-0.2,0.9-0.3,1.9-0.2,2.9c0.2,1.9,2.3,1,2.3,1v-4.8c-1.9-0.8-4-1.3-6.2-1.2
	c-3.2-0.2-6.3,1.4-8.2,4.1c-1.9,3.4-1,7.6,2,10h-9.4v-10.5h0.8c1.2,0,2.1-1,2.1-2.1v-0.3h-5.2c-1.2,0-2.1,1-2.1,2.1v16.6
	c0,3.7-5,4.2-8,1.2c-0.8,1.2-0.6,2.8,0.6,3.7c2.5,1.8,11.7,1.9,11.7-5.3v-3.6c0.4,0.4,0.9,0.5,1.4,0.5h21
	C430.8,338.2,430.8,337.2,430.3,336.5L430.3,336.5z M392.2,342c-1.2-0.3-2.4,0.5-2.7,1.7c-0.3,1.2,0.5,2.4,1.7,2.7
	c1.2,0.3,2.4-0.5,2.7-1.7c0.1-0.3,0.1-0.7,0-1C393.6,342.9,393,342.2,392.2,342L392.2,342z M388.3,343.7c-0.3-1.2-1.5-2-2.7-1.7
	c-1.2,0.3-2,1.5-1.7,2.7c0.2,0.8,0.8,1.5,1.7,1.7c1.2,0.3,2.4-0.4,2.7-1.6C388.4,344.4,388.4,344,388.3,343.7L388.3,343.7z
	 M459,345.8c7.9,0,10.3-4.5,10.3-5.5v-24.9h0.8c1.2,0,2.1-1,2.1-2.1v-0.3H467c-1.2,0-2.1,0.9-2.1,2.1c0,0,0,0,0,0v26.6
	c-1.7,1.5-3.9,2.1-6.1,1.8c-4.4,0.1-8-3.4-8.1-7.8c0-0.3,0-0.5,0-0.8c-0.1-2.1,0.4-4.2,1.5-6.1c-0.6-0.3-1.2-0.3-1.8-0.2
	c-1.2,0.2-3.4,2.1-3.4,7.2C447,341.4,451.3,345.8,459,345.8z M308,375.1c-0.4,0-0.7,0-0.9,0c-0.2,0-0.6,0-1.1,0c-0.5,0-1.1,0-1.4,0
	h-0.1v0.9l0.1,0c1.2,0.2,1.3,0.6,1.3,1v3.3c-0.9,0.5-1.8,0.7-2.8,0.8c-3.4,0-6.1-2.6-6.2-6c0-0.3,0-0.6,0.1-0.9
	c-0.3-3.2,2.1-6,5.3-6.2c0.2,0,0.3,0,0.5,0c1.7-0.1,3.3,0.8,4.2,2.2l0,0.1h0.8l-0.2-3h-0.1c-0.4,0-0.8-0.1-1.2-0.2
	c-0.3-0.1-0.6-0.1-0.9-0.2c-0.9-0.2-1.8-0.4-2.7-0.4c-4.5-0.3-8.4,3.2-8.7,7.7c-0.3,4.5,3.2,8.4,7.7,8.7c0.4,0,0.8,0,1.2,0
	c1.3,0,2.6-0.1,3.8-0.4c0.7-0.2,1.3-0.3,2-0.4h0.1v-4.8c-0.1-0.5,0.2-0.9,0.6-1.1l0.1,0v-0.8h-0.1
	C308.9,375.1,308.4,375.1,308,375.1z M321.1,366.4c-4.4-0.1-8,3.5-8,7.9c0,0.1,0,0.2,0,0.4c-0.1,4.4,3.4,8.1,7.9,8.2
	c4.4,0.1,8.1-3.4,8.2-7.9c0-0.1,0-0.2,0-0.3c0.2-4.4-3.3-8.1-7.7-8.2C321.4,366.4,321.3,366.4,321.1,366.4L321.1,366.4z
	 M326.1,374.6c0,3.2-1.3,6.6-5,6.6c-3.7,0-5-3.4-5-6.6c0-3.2,1.3-6.7,5-6.7C324.8,367.9,326.1,371.4,326.1,374.6L326.1,374.6z
	 M343.8,379c-0.3,1.1-1.4,1.9-2.6,1.8h-4.1v-12.3c0.1-0.6,0.6-1.1,1.2-1.1l0.1,0v-0.8h-0.1c-0.2,0-0.8,0-1.4,0c-0.5,0-1,0-1.2,0
	s-0.7,0-1.3,0c-0.5,0-1.1,0-1.3,0H333v0.8l0.1,0c0.6,0,1.1,0.4,1.2,1c0,0,0,0,0,0v11.9c0,0.6-0.5,1.1-1.1,1.2l-0.1,0v0.8h0.1
	c0.3,0,0.9,0,1.4,0c0.4,0,0.9,0,1.1,0h4.6c1.3,0,2.5,0,3.8,0.1h0.1l0.4-3.5L343.8,379L343.8,379z M355.1,366.6h-7v0.8l0.1,0
	c0.6,0.1,1,0.5,1.1,1.1v11.9c0,0.6-0.5,1.1-1.1,1.2l-0.1,0v0.8h0.1c0.3,0,1,0,1.5,0c0.5,0,0.9,0,1,0s0.7,0,1.2,0c0.6,0,1.3,0,1.5,0
	h0.1v-0.8l-0.1,0c-1.5-0.2-1.5-0.9-1.5-1.1v-5.5h3.2c0.6,0,1,0.3,1.2,0.9l0,0.1h0.8v-0.1c0-0.3,0-0.7,0-1c0-0.2,0-0.5,0-0.6
	c0-0.3,0-1.1,0-1.6v-0.1h-0.9l0,0.1c-0.2,0.5-0.7,0.9-1.2,0.9H352v-5.3h3.6c0.9,0,1.8,0.5,2.1,1.4l0,0.1h0.8l0.1-3.2l-0.3,0
	C357.3,366.6,356.4,366.6,355.1,366.6L355.1,366.6z M384.5,379.9l-2-1.8c0.3-0.7,0.6-1.4,0.9-2.1c0.1-0.3,0.2-0.6,0.3-0.8
	c0.1-0.2,0.2-0.4,0.3-0.6c0.5-0.6,1.1-1.1,1.9-1.4l0.1,0v-0.8h-0.1c-0.6,0-1.8,0.1-2.1,0.1s-1.5,0-2.1-0.1h-0.1v0.8l0.1,0
	c0.5,0.2,0.7,0.7,0.6,1.2c-0.3,0.9-0.6,1.7-1,2.5l-3.4-3c1.8-0.4,3.1-2,3.3-3.8c0-2.3-1.7-3.6-4.6-3.6c-2.3-0.3-4.5,1.4-4.7,3.7
	c0,0.1,0,0.2,0,0.3c0.2,1.5,1.1,2.8,2.3,3.6c-1.7,0.7-2.9,2.4-3,4.3c0.1,2.5,2.2,4.5,4.7,4.5c0.2,0,0.4,0,0.7-0.1
	c1.9,0.1,3.7-0.8,4.8-2.3l0.8,0.6c1.4,1.4,3.5,1.9,5.4,1.4l0.1,0v-0.8l-0.1,0C386.2,381.3,385.3,380.7,384.5,379.9L384.5,379.9z
	 M374.7,369.8c-0.1-1,0.7-1.8,1.6-1.9c0,0,0.1,0,0.1,0c0.9,0,1.6,0.7,1.7,1.6c0,0.1,0,0.3,0,0.4c0.1,1.2-0.6,2.3-1.7,2.8l-0.1-0.1
	C375.3,372,374.7,371,374.7,369.8L374.7,369.8z M379.7,379.4c-0.6,0.9-1.6,1.4-2.7,1.4c-1.6,0.1-3-1-3.1-2.6c0-0.1,0-0.3,0-0.4
	c0-0.9,0.5-1.8,1.2-2.4L379.7,379.4z M411.9,379c-1,1.6-2.9,2.4-4.7,2.2c-3.3-0.4-5.7-3.3-5.4-6.6c0-4,2.2-6.6,5.4-6.6
	c1.8-0.2,3.6,0.6,4.5,2.2l0,0.1h0.8l-0.2-3h-0.1c-0.4,0-0.8-0.1-1.2-0.2l-0.7-0.2c-1-0.3-2.1-0.4-3.1-0.5c-4.4-0.3-8.2,3-8.5,7.4
	c0,0.2,0,0.5,0,0.7c-0.2,4.3,3.1,8,7.4,8.2c0.4,0,0.7,0,1.1,0c1.2,0,2.4-0.2,3.6-0.5l0.4-0.1c0.4-0.1,0.8-0.2,1.2-0.2l0.1,0l0.2-3.1
	L411.9,379L411.9,379z M424,366.4c-4.4,0-8,3.5-8,7.9c0,0.1,0,0.2,0,0.3c-0.1,4.4,3.4,8.1,7.9,8.2c4.4,0.1,8.1-3.4,8.2-7.9
	c0-0.1,0-0.2,0-0.3c0.2-4.4-3.3-8.1-7.6-8.2C424.3,366.4,424.2,366.4,424,366.4L424,366.4z M429,374.6c0,3.2-1.3,6.6-5,6.6
	s-5-3.4-5-6.6c0-3.2,1.3-6.7,5-6.7S429,371.4,429,374.6L429,374.6z M449.9,366.7c-0.4,0-0.8,0-0.9,0c-0.2,0-0.6,0-1,0s-0.8,0-1,0
	h-0.1v0.8l0.1,0c0.6,0,1.1,0.4,1.2,1c0,0,0,0,0,0v8.8c-0.1,2.3-2,4-4.3,3.9c-0.1,0-0.2,0-0.3,0c-2,0.1-3.7-1.5-3.7-3.5
	c0-0.1,0-0.2,0-0.3v-8.7c0-0.6,0.4-1,1-1.1l0.1,0v-0.8h-0.1c-0.3,0-0.9,0-1.4,0c-0.4,0-0.8,0-0.9,0c-0.2,0-0.6,0-1.1,0
	c-0.5,0-1.1,0-1.4,0h-0.1v0.8l0.1,0c0.6,0.1,1,0.5,1,1.1v8.1c-0.3,3,2,5.7,5,6c0.4,0,0.8,0,1.1,0c4.5,0,6.8-2.1,6.8-6v-8.2
	c0-0.5,0.2-0.8,1.2-1.1l0.1,0v-0.8H451C450.8,366.6,450.4,366.6,449.9,366.7L449.9,366.7z M469.9,366.7c-0.4,0-0.8,0-0.9,0
	s-0.6,0-1,0c-0.4,0-0.8,0-1,0h-0.1v0.8l0.1,0c0.6,0,1.1,0.4,1.2,1c0,0,0,0,0,0v9.5l-9.9-11.4l0,0h-0.1c-0.3,0-0.5,0-0.7,0
	c-0.3,0-0.7,0-1,0c-0.2,0-0.5,0-0.8,0h-0.1v0.8l0.1,0c0.6,0.2,0.9,0.8,0.9,1.4v11.7c0,0.5-0.2,0.8-1.2,1.1l-0.1,0v0.8h0.1
	c0.2,0,0.7,0,1.1,0s0.8,0,0.9,0s0.6,0,1,0c0.4,0,0.8,0,1,0h0.1v-0.8l-0.1,0c-1-0.2-1.2-0.7-1.2-1.1v-9.7l8.7,10
	c0.6,0.7,1.3,1.3,2.1,1.8l0,0h0.9v-14.1c0-0.5,0.2-0.8,1.2-1.1l0.1,0v-0.8H471C470.7,366.6,470.3,366.6,469.9,366.7L469.9,366.7z
	 M481.3,366.7c-4.5,0-5.6-0.1-6.7-0.2l-0.4,0l0.1,3.5h0.8l0-0.1c0.1-0.9,0.8-1.6,1.8-1.7h2.9v12.2c-0.1,0.6-0.6,1-1.2,1.1l-0.1,0
	v0.8h0.1c0.3,0,1,0,1.5,0c0.5,0,0.9,0,1,0c0.2,0,0.7,0,1.2,0c0.6,0,1.2,0,1.5,0h0.1v-0.8l-0.1,0c-0.6-0.1-1.1-0.5-1.3-1.1v-12.3h2.9
	c0.9,0,1.7,0.7,1.7,1.7l0,0.1h0.8l0.1-3.5l-0.4,0C487,366.6,485.8,366.7,481.3,366.7L481.3,366.7z M503.6,379.9l-3.5-4.5
	c2-0.4,3.4-2.1,3.5-4.2c-0.2-2.8-2.6-4.9-5.4-4.8c-0.2,0-0.3,0-0.5,0c-0.4,0-1.1,0-1.9,0.1c-0.7,0-1.3,0.1-1.6,0.1
	c-0.2,0-0.6,0-1.1,0c-0.5,0-1.1,0-1.4,0h-0.1v0.8l0.1,0c0.6,0.1,1,0.5,1.1,1.1v11.9c0,0.6-0.5,1-1,1.1l-0.1,0v0.8h0.1
	c0.3,0,0.9,0,1.4,0c0.4,0,0.8,0,0.9,0s0.6,0,1.1,0c0.5,0,1.1,0,1.4,0h0.1v-0.8l-0.1,0c-0.6-0.1-1-0.5-1-1.1v-4.9
	c0.4,0,0.8,0.1,1.2,0.1l4.1,5.3c0.6,1,1.7,1.6,2.9,1.6c0.5,0,1.1-0.1,1.6-0.2l0.1,0v-0.7l-0.1,0
	C504.8,381.2,504.2,380.6,503.6,379.9L503.6,379.9z M500.6,371.3c0.1,1.6-1.2,3-2.8,3.1c-0.2,0-0.4,0-0.5,0c-0.5,0-1,0-1.5-0.1V368
	c0.5-0.1,0.9-0.1,1.4-0.1c1.7-0.2,3.3,1.1,3.4,2.8C500.6,370.9,500.6,371.1,500.6,371.3L500.6,371.3z M519.6,366.7
	c-0.3,0-0.6,0-0.7,0c-0.1,0-0.4,0-0.7,0c-0.4,0-0.9,0-1.2,0h-0.1v0.8l0.1,0c0.4,0.1,0.5,0.2,0.5,0.3c0,0.3-0.2,0.6-0.4,0.9l-3,4.7
	l-3-4.7c-0.2-0.2-0.3-0.5-0.3-0.8c0-0.2,0.2-0.3,0.4-0.3l0.1,0v-0.9h-0.1c-0.4,0-0.9,0-1.5,0c-0.4,0-0.7,0-0.9,0c-0.2,0-0.5,0-0.9,0
	c-0.5,0-1.1,0-1.4,0h-0.1v0.8l0.1,0c0.8,0.4,1.4,1,1.9,1.8l3.8,6v5.3c0,0.6-0.5,1.1-1,1.1l-0.1,0v0.8h0.1c0.3,0,0.9,0,1.5,0
	c0.4,0,0.8,0,0.9,0s0.6,0,1.1,0c0.5,0,1.1,0,1.4,0h0.1v-0.8l-0.1,0c-0.6,0-1-0.5-1-1.1v-5.4l3.5-5.4c0.6-1,1.4-1.7,2.4-2.2l0.1,0
	v-0.8h-0.1C520.5,366.6,520,366.6,519.6,366.7L519.6,366.7z M545.1,379c-1,1.6-2.9,2.4-4.7,2.2c-3.3-0.4-5.7-3.3-5.4-6.6
	c0-4,2.2-6.6,5.4-6.6c1.8-0.2,3.6,0.6,4.5,2.2l0,0.1h0.8l-0.2-3h-0.1c-0.4,0-0.8-0.1-1.2-0.2l-0.7-0.2c-1-0.3-2.1-0.4-3.1-0.5
	c-4.4-0.3-8.2,3-8.5,7.4c0,0.2,0,0.5,0,0.7c-0.2,4.3,3.1,8,7.4,8.2c0.4,0,0.7,0,1.1,0c1.2,0,2.4-0.2,3.6-0.5l0.4-0.1
	c0.4-0.1,0.8-0.2,1.2-0.2l0.1,0l0.2-3.1L545.1,379L545.1,379z M560.4,379c-0.3,1.1-1.4,1.9-2.6,1.8h-4.1v-12.3
	c0.1-0.6,0.6-1.1,1.2-1.1l0.1,0v-0.8H555c-0.2,0-0.8,0-1.4,0c-0.5,0-1,0-1.2,0s-0.7,0-1.3,0c-0.5,0-1.1,0-1.3,0h-0.1v0.8l0.1,0
	c0.6,0,1.1,0.4,1.2,1c0,0,0,0,0,0v11.9c0,0.6-0.5,1.1-1.1,1.2l-0.1,0v0.8h0.1c0.3,0,0.9,0,1.4,0c0.4,0,0.9,0,1.1,0h4.6
	c1.3,0,2.5,0,3.8,0.1h0.1l0.4-3.5l-0.8-0.2L560.4,379z M578.7,366.7c-0.4,0-0.8,0-0.9,0c-0.2,0-0.6,0-1,0c-0.4,0-0.8,0-1,0h-0.1v0.8
	l0.1,0c0.6,0,1.1,0.4,1.2,1c0,0,0,0,0,0v8.8c-0.1,2.3-2,4-4.3,3.9c-0.1,0-0.2,0-0.3,0c-2,0.1-3.7-1.5-3.7-3.5c0-0.1,0-0.2,0-0.3
	v-8.7c0-0.6,0.4-1,1-1.1l0.1,0v-0.8h-0.1c-0.3,0-0.9,0-1.4,0c-0.4,0-0.8,0-0.9,0c-0.2,0-0.6,0-1.1,0c-0.5,0-1.1,0-1.4,0h-0.1v0.8
	l0.1,0c0.6,0.1,1,0.5,1,1.1v8.1c-0.3,3,2,5.7,5,6c0.4,0,0.8,0,1.1,0c4.5,0,6.8-2.1,6.8-6v-8.2c0-0.5,0.2-0.8,1.2-1.1l0.1,0v-0.8
	h-0.1C579.6,366.6,579.1,366.6,578.7,366.7L578.7,366.7z M592.7,374c1.3-0.6,2.1-1.9,2.1-3.4c0-2.7-1.9-4.1-5.5-4.1
	c-0.4,0-0.9,0-1.5,0.1c-0.5,0-0.9,0.1-1.3,0.1c-0.2,0-0.6,0-1.1,0c-0.5,0-1.1,0-1.4,0H584v0.8l0.1,0c0.6,0.1,1,0.5,1.1,1.1v11.9
	c0,0.6-0.5,1.1-1.1,1.2l-0.1,0v0.8h0.1c0.3,0,0.9,0,1.4,0c0.4,0,0.9,0,1.1,0c0.3,0,0.9,0,1.5,0.1c0.6,0,1.3,0.1,1.7,0.1
	c1.7,0,5.8-0.4,5.8-4.5C595.6,376.2,594.4,374.6,592.7,374L592.7,374z M588,373.4V368l0.1,0c0.2-0.1,0.5-0.1,0.7-0.1
	c1.4-0.2,2.8,0.8,3,2.3c0,0.2,0,0.4,0,0.6c0.1,1.3-0.9,2.5-2.2,2.6c-0.2,0-0.5,0-0.7,0L588,373.4L588,373.4z M592.6,378
	c0.1,1.6-1.1,3-2.7,3.1c-0.2,0-0.4,0-0.5,0c-0.5,0-0.9,0-1.4-0.1v-6h1.4C591.2,374.9,592.6,376.2,592.6,378
	C592.6,377.9,592.6,377.9,592.6,378L592.6,378z"/>
</svg>
