<svg xmlns="http://www.w3.org/2000/svg" xmlns:xlink="http://www.w3.org/1999/xlink" width="130.712" height="121.197" viewBox="0 0 130.712 121.197">
  <defs>
    <filter id="Path_25753" x="0" y="0" width="130.712" height="121.197" filterUnits="userSpaceOnUse">
      <feOffset input="SourceAlpha"/>
      <feGaussianBlur stdDeviation="5" result="blur"/>
      <feFlood flood-color="#4d00ac"/>
      <feComposite operator="in" in2="blur"/>
      <feComposite in="SourceGraphic"/>
    </filter>
  </defs>
  <g transform="matrix(1, 0, 0, 1, 0, 0)" filter="url(#Path_25753)">
    <path id="Path_25753-2" data-name="Path 25753" d="M86.354,54.594a17.335,17.335,0,0,0-.287-25.24,1.477,1.477,0,1,0-2,2.172A14.394,14.394,0,0,1,68.2,55.149a1.11,1.11,0,0,1-.634-.937,17.35,17.35,0,0,0-7.092-12.83,1.118,1.118,0,0,1-.453-1.037A14.418,14.418,0,0,1,79.549,28.7a1.477,1.477,0,1,0,1.075-2.751A17.371,17.371,0,0,0,57.241,39.027a.368.368,0,0,1-.5.27,17.338,17.338,0,0,0-12.976,0,.367.367,0,0,1-.5-.268A17.377,17.377,0,0,0,26.186,24.765h0A17.355,17.355,0,0,0,9.773,36.478a1.477,1.477,0,0,0,2.794.959,14.4,14.4,0,0,1,27.9,2.905,1.114,1.114,0,0,1-.447,1.035,17.353,17.353,0,0,0-7.086,12.831,1.112,1.112,0,0,1-.632.935A14.393,14.393,0,0,1,11.8,42.71a1.477,1.477,0,0,0-2.952.12,17.255,17.255,0,0,0,5.069,11.551A16.718,16.718,0,0,0,0,70.841V95.266A5.835,5.835,0,0,0,5.835,101.1h18.23v7.436a5.836,5.836,0,0,0,5.836,5.836l39.546,0a5.868,5.868,0,0,0,5.7-5.835V101.1H93.376a5.836,5.836,0,0,0,5.836-5.836V70.841A16.725,16.725,0,0,0,86.354,54.594ZM43.524,42.661a14.418,14.418,0,0,1,21.068,11.49.03.03,0,0,0-.014,0h.014A14.215,14.215,0,0,1,64.54,57.1a.338.338,0,0,1-.045,0h.045a14.4,14.4,0,0,1-6.4,10.312h-.008v.006a14.36,14.36,0,0,1-9.956,2.205v-.008s0,0,0,.008a14.4,14.4,0,0,1-4.649-26.969Zm25.819,68.758H29.9a2.883,2.883,0,0,1-2.883-2.883V84.113A13.6,13.6,0,0,1,29.9,75.687a1.478,1.478,0,0,0-2.333-1.814,16.537,16.537,0,0,0-3.507,10.239V98.147H5.835a2.881,2.881,0,0,1-2.881-2.881V70.841A13.739,13.739,0,0,1,16.692,57.1h.744a17.365,17.365,0,0,0,14.455,1.4,1.116,1.116,0,0,1,1.456.807,17.311,17.311,0,0,0,3.418,6.984,1.113,1.113,0,0,1-.577,1.765,16.584,16.584,0,0,0-3.762,1.589A1.478,1.478,0,0,0,33.9,72.2a13.737,13.737,0,0,1,7.346-1.828,1.117,1.117,0,0,1,.532.146,17.323,17.323,0,0,0,16.9.024,1.114,1.114,0,0,1,.611-.148A13.757,13.757,0,0,1,72.194,84.113c0,4.931,0,19.493,0,24.423A2.9,2.9,0,0,1,69.343,111.419ZM96.259,95.266a2.885,2.885,0,0,1-2.883,2.881H75.148V84.113a16.721,16.721,0,0,0-12.86-16.249,17.311,17.311,0,0,0,5.11-9.84,17.318,17.318,0,0,0,15.627-.912A13.756,13.756,0,0,1,96.259,70.841Z" transform="translate(15.75 -8.93)" fill="#fff" stroke="#4d00ac" stroke-width="1.5"/>
  </g>
</svg>