<svg xmlns="http://www.w3.org/2000/svg" xmlns:xlink="http://www.w3.org/1999/xlink" width="125.25" height="125.235" viewBox="0 0 125.25 125.235">
  <defs>
    <filter id="Path_25754" x="11.117" y="11.094" width="103.022" height="103.032" filterUnits="userSpaceOnUse">
      <feOffset input="SourceAlpha"/>
      <feGaussianBlur stdDeviation="5" result="blur"/>
      <feFlood flood-color="#4d00ad"/>
      <feComposite operator="in" in2="blur"/>
      <feComposite in="SourceGraphic"/>
    </filter>
    <filter id="Path_25755" x="20.561" y="6.934" width="35.024" height="34.927" filterUnits="userSpaceOnUse">
      <feOffset input="SourceAlpha"/>
      <feGaussianBlur stdDeviation="5" result="blur-2"/>
      <feFlood flood-color="#4d00ad"/>
      <feComposite operator="in" in2="blur-2"/>
      <feComposite in="SourceGraphic"/>
    </filter>
    <filter id="Path_25756" x="0" y="0" width="125.25" height="125.235" filterUnits="userSpaceOnUse">
      <feOffset input="SourceAlpha"/>
      <feGaussianBlur stdDeviation="5" result="blur-3"/>
      <feFlood flood-color="#4d00ad"/>
      <feComposite operator="in" in2="blur-3"/>
      <feComposite in="SourceGraphic"/>
    </filter>
    <filter id="Path_25757" x="37.232" y="21.572" width="50.786" height="81.998" filterUnits="userSpaceOnUse">
      <feOffset input="SourceAlpha"/>
      <feGaussianBlur stdDeviation="5" result="blur-4"/>
      <feFlood flood-color="#4d00ad"/>
      <feComposite operator="in" in2="blur-4"/>
      <feComposite in="SourceGraphic"/>
    </filter>
  </defs>
  <g id="cost-per-click" transform="translate(-8.945 -9)">
    <g transform="matrix(1, 0, 0, 1, 8.95, 9)" filter="url(#Path_25754)">
      <path id="Path_25754-2" data-name="Path 25754" d="M94.92,93.133a1.49,1.49,0,0,0,2.1-.168,35.754,35.754,0,1,0-5.606,5.307,1.491,1.491,0,1,0-1.8-2.374,32.812,32.812,0,1,1,5.141-4.868,1.491,1.491,0,0,0,.168,2.1Z" transform="translate(-7.16 -7.21)" fill="#fff" stroke="#4d00ad" stroke-width="1.5"/>
    </g>
    <g transform="matrix(1, 0, 0, 1, 8.95, 9)" filter="url(#Path_25755)">
      <path id="Path_25755-2" data-name="Path 25755" d="M43.461,33.965a1.488,1.488,0,0,0,.814-.239l.488-.315a1.491,1.491,0,1,0-1.6-2.518l-.519.334a1.491,1.491,0,0,0,.816,2.744Z" transform="translate(-5.62 -7.86)" fill="#fff" stroke="#4d00ad" stroke-width="1.5"/>
    </g>
    <g transform="matrix(1, 0, 0, 1, 8.95, 9)" filter="url(#Path_25756)">
      <path id="Path_25756-2" data-name="Path 25756" d="M71.571,24.75a46.522,46.522,0,0,0-18.312,3.717,1.491,1.491,0,0,0,1.167,2.744A43.9,43.9,0,1,1,43.69,37.742a1.491,1.491,0,1,0-1.9-2.3A46.821,46.821,0,1,0,71.571,24.75Z" transform="translate(-8.95 -9)" fill="#fff" stroke="#4d00ad" stroke-width="1.5"/>
    </g>
    <g transform="matrix(1, 0, 0, 1, 8.95, 9)" filter="url(#Path_25757)">
      <path id="Path_25757-2" data-name="Path 25757" d="M72.219,59.931a1.491,1.491,0,0,0,2.982,0,9.649,9.649,0,0,0-8.151-9.516V44.325a1.491,1.491,0,1,0-2.982,0v6.091a9.629,9.629,0,0,0,0,19.03V82.719a6.667,6.667,0,0,1-5.17-6.486,1.491,1.491,0,0,0-2.982,0,9.649,9.649,0,0,0,8.152,9.516v6.092a1.491,1.491,0,0,0,2.982,0V85.749a9.629,9.629,0,0,0,0-19.03V53.446a6.667,6.667,0,0,1,5.169,6.486Zm-13.321,0a6.667,6.667,0,0,1,5.17-6.486V66.412a6.668,6.668,0,0,1-5.17-6.481Zm13.321,16.3a6.667,6.667,0,0,1-5.169,6.484V69.752A6.668,6.668,0,0,1,72.219,76.234Z" transform="translate(-2.93 -5.51)" fill="#fff" stroke="#4d00ad" stroke-width="1.5"/>
    </g>
  </g>
</svg>
