<svg xmlns="http://www.w3.org/2000/svg" xmlns:xlink="http://www.w3.org/1999/xlink" width="125.696" height="125.753" viewBox="0 0 125.696 125.753">
  <defs>
    <filter id="Path_25734" x="32.955" y="37.47" width="59.667" height="50.819" filterUnits="userSpaceOnUse">
      <feOffset input="SourceAlpha"/>
      <feGaussianBlur stdDeviation="5" result="blur"/>
      <feFlood flood-color="#4d00ad"/>
      <feComposite operator="in" in2="blur"/>
      <feComposite in="SourceGraphic"/>
    </filter>
    <filter id="Path_25735" x="17.7" y="17.72" width="90.314" height="90.314" filterUnits="userSpaceOnUse">
      <feOffset input="SourceAlpha"/>
      <feGaussianBlur stdDeviation="5" result="blur-2"/>
      <feFlood flood-color="#4d00ad"/>
      <feComposite operator="in" in2="blur-2"/>
      <feComposite in="SourceGraphic"/>
    </filter>
    <filter id="Path_25736" x="0" y="0" width="125.696" height="125.753" filterUnits="userSpaceOnUse">
      <feOffset input="SourceAlpha"/>
      <feGaussianBlur stdDeviation="5" result="blur-3"/>
      <feFlood flood-color="#4d00ad"/>
      <feComposite operator="in" in2="blur-3"/>
      <feComposite in="SourceGraphic"/>
    </filter>
  </defs>
  <g id="quality" transform="translate(16.048 16.048)">
    <g transform="matrix(1, 0, 0, 1, -16.05, -16.05)" filter="url(#Path_25734)">
      <path id="Path_25734-2" data-name="Path 25734" d="M194.119,193.155l-14.071,13.29L173.3,199.5a1.946,1.946,0,0,0-2.791,2.712l8.1,8.314a1.982,1.982,0,0,0,2.752.058l15.477-14.6a1.944,1.944,0,0,0,.078-2.752,1.992,1.992,0,0,0-2.791-.078Zm0,0" transform="translate(-120.82 -138.98)" fill="#fff" stroke="#4d00ad" stroke-width="2"/>
    </g>
    <g transform="matrix(1, 0, 0, 1, -16.05, -16.05)" filter="url(#Path_25735)">
      <path id="Path_25735-2" data-name="Path 25735" d="M120.032,90.551a29.157,29.157,0,1,0,29.158,29.157,29.185,29.185,0,0,0-29.158-29.157Zm0,54.411a25.254,25.254,0,1,1,25.254-25.254A25.283,25.283,0,0,1,120.032,144.962Zm0,0" transform="translate(-57.17 -56.83)" fill="#fff" stroke="#4d00ad" stroke-width="2"/>
    </g>
    <g transform="matrix(1, 0, 0, 1, -16.05, -16.05)" filter="url(#Path_25736)">
      <path id="Path_25736-2" data-name="Path 25736" d="M87.36,36.094,88,24.521a1.947,1.947,0,0,0-1.073-1.854l-10.3-5.211-5.211-10.3a1.98,1.98,0,0,0-1.854-1.073L57.968,6.7,48.308.321a1.951,1.951,0,0,0-2.147,0L36.5,6.7,24.928,6.059a1.944,1.944,0,0,0-1.854,1.073l-5.211,10.3-10.3,5.211A1.978,1.978,0,0,0,6.485,24.5l.643,11.573L.747,45.736a1.951,1.951,0,0,0,0,2.147l6.363,9.68L6.465,69.135a1.946,1.946,0,0,0,1.073,1.854l10.3,5.211,5.211,10.3a1.978,1.978,0,0,0,1.854,1.073l11.573-.644,9.661,6.382a1.9,1.9,0,0,0,2.147,0l9.661-6.382,11.573.644A1.948,1.948,0,0,0,71.376,86.5l5.211-10.3,10.3-5.211a1.98,1.98,0,0,0,1.073-1.854l-.644-11.573L93.7,47.9a1.951,1.951,0,0,0,0-2.147ZM83.73,55.962a1.833,1.833,0,0,0-.312,1.191l.6,10.948-9.738,4.918a1.926,1.926,0,0,0-.858.859l-4.919,9.738-10.948-.6a2.132,2.132,0,0,0-1.191.312l-9.134,6.031L38.1,83.323a1.932,1.932,0,0,0-1.073-.332h-.1L25.981,83.6l-4.918-9.739A1.922,1.922,0,0,0,20.2,73l-9.758-4.9.605-10.948a2.133,2.133,0,0,0-.313-1.191l-6.03-9.134,6.03-9.134a1.827,1.827,0,0,0,.313-1.19l-.605-10.949,9.739-4.918a1.924,1.924,0,0,0,.858-.858l4.918-9.739,10.949.605a2.142,2.142,0,0,0,1.191-.313L47.234,4.3l9.134,6.03a1.83,1.83,0,0,0,1.191.313l10.948-.605,4.919,9.739a1.924,1.924,0,0,0,.858.858l9.738,4.918-.6,10.949a2.137,2.137,0,0,0,.312,1.19l6.031,9.134Zm0,0" transform="translate(15.62 16.05)" fill="#fff" stroke="#4d00ad" stroke-width="2"/>
    </g>
  </g>
</svg>